0
SECTION
2
HEADER
9
$INSUNITS
70
4
9
$MEASUREMENT
70
1
0
ENDSEC
0
SECTION
2
ENTITIES
0
LINE
8
CEIL_HOT
10
-402.13086
20
41.93708
30
0.0
11
-46.97003
21
41.93708
31
0.0
0
ARC
8
CEIL_HOT
10
-46.97003
20
0.45834
30
0.0
40
41.47874
50
60.00000
51
90.00000
0
LINE
8
CEIL_HOT
10
-26.23065
20
36.37999
30
0.0
11
-20.73937
21
33.20959
31
0.0
0
ARC
8
CEIL_HOT
10
0.00000
20
69.13124
30
0.0
40
41.47874
50
240.00000
51
270.00000
0
ARC
8
CEIL_HOT
10
0.00000
20
38.21575
30
0.0
40
10.56325
50
270.00000
51
300.00000
0
LINE
8
BELL_POLY
10
5.28163
20
29.06770
30
0.0
11
57.81468
21
59.39768
31
0.0
0
LINE
8
BELL_POLY
10
57.81468
20
59.39768
30
0.0
11
135.87390
21
73.16162
31
0.0
0
POINT
8
CONTROL
10
5.28163
20
29.06770
30
0.0
0
POINT
8
CONTROL
10
57.81468
20
59.39768
30
0.0
0
POINT
8
CONTROL
10
135.87390
20
73.16162
30
0.0
0
POINT
8
POINTS
10
-402.13086
20
41.93708
30
0.0
0
POINT
8
POINTS
10
-46.97003
20
41.93708
30
0.0
0
POINT
8
POINTS
10
-26.23065
20
36.37999
30
0.0
0
POINT
8
POINTS
10
-20.73937
20
33.20959
30
0.0
0
POINT
8
POINTS
10
0.00000
20
27.65249
30
0.0
0
POINT
8
POINTS
10
5.28163
20
29.06770
30
0.0
0
POINT
8
POINTS
10
135.87390
20
73.16162
30
0.0
0
LINE
8
CEIL_TOP
10
-402.13086
20
46.93708
30
0.0
11
-46.97003
21
46.93708
31
0.0
0
ARC
8
CEIL_TOP
10
-46.97003
20
5.45834
30
0.0
40
41.47874
50
60.00000
51
90.00000
0
LINE
8
CEIL_TOP
10
-26.23065
20
41.37999
30
0.0
11
-20.73937
21
38.20959
31
0.0
0
ARC
8
CEIL_TOP
10
0.00000
20
74.13124
30
0.0
40
41.47874
50
240.00000
51
270.00000
0
ARC
8
CEIL_TOP
10
0.00000
20
43.21575
30
0.0
40
10.56325
50
270.00000
51
300.00000
0
LINE
8
BELL_POLY
10
5.28163
20
34.06770
30
0.0
11
57.81468
21
64.39768
31
0.0
0
LINE
8
BELL_POLY
10
57.81468
20
64.39768
30
0.0
11
135.87390
21
78.16162
31
0.0
0
POINT
8
CONTROL
10
5.28163
20
34.06770
30
0.0
0
POINT
8
CONTROL
10
57.81468
20
64.39768
30
0.0
0
POINT
8
CONTROL
10
135.87390
20
78.16162
30
0.0
0
POINT
8
POINTS
10
-402.13086
20
46.93708
30
0.0
0
POINT
8
POINTS
10
-46.97003
20
46.93708
30
0.0
0
POINT
8
POINTS
10
-26.23065
20
41.37999
30
0.0
0
POINT
8
POINTS
10
-20.73937
20
38.20959
30
0.0
0
POINT
8
POINTS
10
0.00000
20
32.65249
30
0.0
0
POINT
8
POINTS
10
5.28163
20
34.06770
30
0.0
0
POINT
8
POINTS
10
135.87390
20
78.16162
30
0.0
0
LINE
8
CEIL_CAP
10
-402.13086
20
41.93708
30
0.0
11
-402.13086
21
46.93708
31
0.0
0
LINE
8
CEIL_CAP
10
135.87390
20
73.16162
30
0.0
11
135.87390
21
78.16162
31
0.0
0
ENDSEC
0
EOF
