0
SECTION
2
HEADER
9
$INSUNITS
70
4
9
$MEASUREMENT
70
1
0
ENDSEC
0
SECTION
2
ENTITIES
0
LINE
8
CH_FLOOR
10
-388.02280
20
227.68216
30
0.0
11
-238.99720
21
227.68216
31
0.0
0
ARC
8
CH_FLOOR
10
-238.99720
20
185.85451
30
0.0
40
41.82765
50
64.58330
51
90.00000
0
LINE
8
CH_FLOOR
10
-221.04484
20
223.63368
30
0.0
11
-53.18865
21
143.86973
31
0.0
0
ARC
8
CH_FLOOR
10
0.00000
20
255.80055
30
0.0
40
123.92555
50
244.58330
51
270.00000
0
ARC
8
CH_FLOOR
10
0.00000
20
180.44272
30
0.0
40
48.56772
50
270.00000
51
307.00000
0
LINE
8
BELL_POLY
10
29.22878
20
141.65482
30
0.0
11
153.92936
21
235.62345
31
0.0
0
LINE
8
BELL_POLY
10
153.92936
20
235.62345
30
0.0
11
482.98830
21
293.64542
31
0.0
0
POINT
8
CONTROL
10
29.22878
20
141.65482
30
0.0
0
POINT
8
CONTROL
10
153.92936
20
235.62345
30
0.0
0
POINT
8
CONTROL
10
482.98830
20
293.64542
30
0.0
0
POINT
8
POINTS
10
-388.02280
20
227.68216
30
0.0
0
POINT
8
POINTS
10
-238.99720
20
227.68216
30
0.0
0
POINT
8
POINTS
10
-221.04484
20
223.63368
30
0.0
0
POINT
8
POINTS
10
-53.18865
20
143.86973
30
0.0
0
POINT
8
POINTS
10
0.00000
20
131.87501
30
0.0
0
POINT
8
POINTS
10
29.22878
20
141.65482
30
0.0
0
POINT
8
POINTS
10
482.98830
20
293.64542
30
0.0
0
LINE
8
CH_CENTER
10
-388.02280
20
228.68216
30
0.0
11
-238.99720
21
228.68216
31
0.0
0
ARC
8
CH_CENTER
10
-238.99720
20
186.85451
30
0.0
40
41.82765
50
64.58330
51
90.00000
0
LINE
8
CH_CENTER
10
-221.04484
20
224.63368
30
0.0
11
-53.18865
21
144.86973
31
0.0
0
ARC
8
CH_CENTER
10
0.00000
20
256.80055
30
0.0
40
123.92555
50
244.58330
51
270.00000
0
ARC
8
CH_CENTER
10
0.00000
20
181.44272
30
0.0
40
48.56772
50
270.00000
51
307.00000
0
LINE
8
BELL_POLY
10
29.22878
20
142.65482
30
0.0
11
153.92936
21
236.62345
31
0.0
0
LINE
8
BELL_POLY
10
153.92936
20
236.62345
30
0.0
11
482.98830
21
294.64542
31
0.0
0
POINT
8
CONTROL
10
29.22878
20
142.65482
30
0.0
0
POINT
8
CONTROL
10
153.92936
20
236.62345
30
0.0
0
POINT
8
CONTROL
10
482.98830
20
294.64542
30
0.0
0
POINT
8
POINTS
10
-388.02280
20
228.68216
30
0.0
0
POINT
8
POINTS
10
-238.99720
20
228.68216
30
0.0
0
POINT
8
POINTS
10
-221.04484
20
224.63368
30
0.0
0
POINT
8
POINTS
10
-53.18865
20
144.86973
30
0.0
0
POINT
8
POINTS
10
0.00000
20
132.87501
30
0.0
0
POINT
8
POINTS
10
29.22878
20
142.65482
30
0.0
0
POINT
8
POINTS
10
482.98830
20
294.64542
30
0.0
0
LINE
8
CH_CEILING
10
-388.02280
20
229.68216
30
0.0
11
-238.99720
21
229.68216
31
0.0
0
ARC
8
CH_CEILING
10
-238.99720
20
187.85451
30
0.0
40
41.82765
50
64.58330
51
90.00000
0
LINE
8
CH_CEILING
10
-221.04484
20
225.63368
30
0.0
11
-53.18865
21
145.86973
31
0.0
0
ARC
8
CH_CEILING
10
0.00000
20
257.80055
30
0.0
40
123.92555
50
244.58330
51
270.00000
0
ARC
8
CH_CEILING
10
0.00000
20
182.44272
30
0.0
40
48.56772
50
270.00000
51
307.00000
0
LINE
8
BELL_POLY
10
29.22878
20
143.65482
30
0.0
11
153.92936
21
237.62345
31
0.0
0
LINE
8
BELL_POLY
10
153.92936
20
237.62345
30
0.0
11
482.98830
21
295.64542
31
0.0
0
POINT
8
CONTROL
10
29.22878
20
143.65482
30
0.0
0
POINT
8
CONTROL
10
153.92936
20
237.62345
30
0.0
0
POINT
8
CONTROL
10
482.98830
20
295.64542
30
0.0
0
POINT
8
POINTS
10
-388.02280
20
229.68216
30
0.0
0
POINT
8
POINTS
10
-238.99720
20
229.68216
30
0.0
0
POINT
8
POINTS
10
-221.04484
20
225.63368
30
0.0
0
POINT
8
POINTS
10
-53.18865
20
145.86973
30
0.0
0
POINT
8
POINTS
10
0.00000
20
133.87501
30
0.0
0
POINT
8
POINTS
10
29.22878
20
143.65482
30
0.0
0
POINT
8
POINTS
10
482.98830
20
295.64542
30
0.0
0
ENDSEC
0
EOF
