0
SECTION
2
HEADER
9
$INSUNITS
70
4
9
$MEASUREMENT
70
1
0
ENDSEC
0
SECTION
2
ENTITIES
0
LINE
8
CH_FLOOR
10
-151.46442
20
42.35645
30
0.0
11
-58.05955
21
42.35645
31
0.0
0
ARC
8
CH_FLOOR
10
-58.05955
20
20.42388
30
0.0
40
21.93257
50
60.00000
51
90.00000
0
LINE
8
CH_FLOOR
10
-47.09327
20
39.41804
30
0.0
11
-10.96629
21
18.56012
31
0.0
0
ARC
8
CH_FLOOR
10
0.00000
20
37.55428
30
0.0
40
21.93257
50
240.00000
51
270.00000
0
ARC
8
CH_FLOOR
10
0.00000
20
21.20721
30
0.0
40
5.58549
50
270.00000
51
300.00000
0
LINE
8
BELL_POLY
10
2.79275
20
16.37003
30
0.0
11
23.59691
21
28.38132
31
0.0
0
LINE
8
BELL_POLY
10
23.59691
20
28.38132
30
0.0
11
63.27774
21
36.81574
31
0.0
0
POINT
8
CONTROL
10
2.79275
20
16.37003
30
0.0
0
POINT
8
CONTROL
10
23.59691
20
28.38132
30
0.0
0
POINT
8
CONTROL
10
63.27774
20
36.81574
30
0.0
0
POINT
8
POINTS
10
-151.46442
20
42.35645
30
0.0
0
POINT
8
POINTS
10
-58.05955
20
42.35645
30
0.0
0
POINT
8
POINTS
10
-47.09327
20
39.41804
30
0.0
0
POINT
8
POINTS
10
-10.96629
20
18.56012
30
0.0
0
POINT
8
POINTS
10
0.00000
20
15.62171
30
0.0
0
POINT
8
POINTS
10
2.79275
20
16.37003
30
0.0
0
POINT
8
POINTS
10
63.27774
20
36.81574
30
0.0
0
LINE
8
CH_CENTER
10
-151.46442
20
43.60564
30
0.0
11
-58.05955
21
43.60564
31
0.0
0
ARC
8
CH_CENTER
10
-58.05955
20
21.67307
30
0.0
40
21.93257
50
60.00000
51
90.00000
0
LINE
8
CH_CENTER
10
-47.09327
20
40.66723
30
0.0
11
-10.96629
21
19.80930
31
0.0
0
ARC
8
CH_CENTER
10
0.00000
20
38.80347
30
0.0
40
21.93257
50
240.00000
51
270.00000
0
ARC
8
CH_CENTER
10
0.00000
20
22.45639
30
0.0
40
5.58549
50
270.00000
51
300.00000
0
LINE
8
BELL_POLY
10
2.79275
20
17.61921
30
0.0
11
23.59691
21
29.63050
31
0.0
0
LINE
8
BELL_POLY
10
23.59691
20
29.63050
30
0.0
11
63.27774
21
38.06492
31
0.0
0
POINT
8
CONTROL
10
2.79275
20
17.61921
30
0.0
0
POINT
8
CONTROL
10
23.59691
20
29.63050
30
0.0
0
POINT
8
CONTROL
10
63.27774
20
38.06492
30
0.0
0
POINT
8
POINTS
10
-151.46442
20
43.60564
30
0.0
0
POINT
8
POINTS
10
-58.05955
20
43.60564
30
0.0
0
POINT
8
POINTS
10
-47.09327
20
40.66723
30
0.0
0
POINT
8
POINTS
10
-10.96629
20
19.80930
30
0.0
0
POINT
8
POINTS
10
0.00000
20
16.87090
30
0.0
0
POINT
8
POINTS
10
2.79275
20
17.61921
30
0.0
0
POINT
8
POINTS
10
63.27774
20
38.06492
30
0.0
0
LINE
8
CH_CEILING
10
-151.46442
20
44.85482
30
0.0
11
-58.05955
21
44.85482
31
0.0
0
ARC
8
CH_CEILING
10
-58.05955
20
22.92225
30
0.0
40
21.93257
50
60.00000
51
90.00000
0
LINE
8
CH_CEILING
10
-47.09327
20
41.91641
30
0.0
11
-10.96629
21
21.05849
31
0.0
0
ARC
8
CH_CEILING
10
0.00000
20
40.05265
30
0.0
40
21.93257
50
240.00000
51
270.00000
0
ARC
8
CH_CEILING
10
0.00000
20
23.70558
30
0.0
40
5.58549
50
270.00000
51
300.00000
0
LINE
8
BELL_POLY
10
2.79275
20
18.86840
30
0.0
11
23.59691
21
30.87968
31
0.0
0
LINE
8
BELL_POLY
10
23.59691
20
30.87968
30
0.0
11
63.27774
21
39.31411
31
0.0
0
POINT
8
CONTROL
10
2.79275
20
18.86840
30
0.0
0
POINT
8
CONTROL
10
23.59691
20
30.87968
30
0.0
0
POINT
8
CONTROL
10
63.27774
20
39.31411
30
0.0
0
POINT
8
POINTS
10
-151.46442
20
44.85482
30
0.0
0
POINT
8
POINTS
10
-58.05955
20
44.85482
30
0.0
0
POINT
8
POINTS
10
-47.09327
20
41.91641
30
0.0
0
POINT
8
POINTS
10
-10.96629
20
21.05849
30
0.0
0
POINT
8
POINTS
10
0.00000
20
18.12008
30
0.0
0
POINT
8
POINTS
10
2.79275
20
18.86840
30
0.0
0
POINT
8
POINTS
10
63.27774
20
39.31411
30
0.0
0
ENDSEC
0
EOF
