0
SECTION
2
HEADER
9
$INSUNITS
70
4
9
$MEASUREMENT
70
1
0
ENDSEC
0
SECTION
2
ENTITIES
0
LINE
8
CONTOUR_HOT
10
-151.46442
20
41.35645
30
0.0
11
-58.05955
21
41.35645
31
0.0
0
ARC
8
CONTOUR_HOT
10
-58.05955
20
19.42388
30
0.0
40
21.93257
50
60.00000
51
90.00000
0
LINE
8
CONTOUR_HOT
10
-47.09327
20
38.41804
30
0.0
11
-10.96629
21
17.56012
31
0.0
0
ARC
8
CONTOUR_HOT
10
0.00000
20
36.55428
30
0.0
40
21.93257
50
240.00000
51
270.00000
0
ARC
8
CONTOUR_HOT
10
0.00000
20
20.20721
30
0.0
40
5.58549
50
270.00000
51
300.00000
0
LINE
8
BELL_POLY
10
2.79275
20
15.37003
30
0.0
11
23.59691
21
27.38132
31
0.0
0
LINE
8
BELL_POLY
10
23.59691
20
27.38132
30
0.0
11
63.27774
21
35.81574
31
0.0
0
POINT
8
CONTROL
10
2.79275
20
15.37003
30
0.0
0
POINT
8
CONTROL
10
23.59691
20
27.38132
30
0.0
0
POINT
8
CONTROL
10
63.27774
20
35.81574
30
0.0
0
POINT
8
POINTS
10
-151.46442
20
41.35645
30
0.0
0
POINT
8
POINTS
10
-58.05955
20
41.35645
30
0.0
0
POINT
8
POINTS
10
-47.09327
20
38.41804
30
0.0
0
POINT
8
POINTS
10
-10.96629
20
17.56012
30
0.0
0
POINT
8
POINTS
10
0.00000
20
14.62171
30
0.0
0
POINT
8
POINTS
10
2.79275
20
15.37003
30
0.0
0
POINT
8
POINTS
10
63.27774
20
35.81574
30
0.0
0
LINE
8
CONTOUR_COOL
10
-151.46442
20
42.35645
30
0.0
11
-58.05955
21
42.35645
31
0.0
0
ARC
8
CONTOUR_COOL
10
-58.05955
20
20.42388
30
0.0
40
21.93257
50
60.00000
51
90.00000
0
LINE
8
CONTOUR_COOL
10
-47.09327
20
39.41804
30
0.0
11
-10.96629
21
18.56012
31
0.0
0
ARC
8
CONTOUR_COOL
10
0.00000
20
37.55428
30
0.0
40
21.93257
50
240.00000
51
270.00000
0
ARC
8
CONTOUR_COOL
10
0.00000
20
21.20721
30
0.0
40
5.58549
50
270.00000
51
300.00000
0
LINE
8
BELL_POLY
10
2.79275
20
16.37003
30
0.0
11
23.59691
21
28.38132
31
0.0
0
LINE
8
BELL_POLY
10
23.59691
20
28.38132
30
0.0
11
63.27774
21
36.81574
31
0.0
0
POINT
8
CONTROL
10
2.79275
20
16.37003
30
0.0
0
POINT
8
CONTROL
10
23.59691
20
28.38132
30
0.0
0
POINT
8
CONTROL
10
63.27774
20
36.81574
30
0.0
0
POINT
8
POINTS
10
-151.46442
20
42.35645
30
0.0
0
POINT
8
POINTS
10
-58.05955
20
42.35645
30
0.0
0
POINT
8
POINTS
10
-47.09327
20
39.41804
30
0.0
0
POINT
8
POINTS
10
-10.96629
20
18.56012
30
0.0
0
POINT
8
POINTS
10
0.00000
20
15.62171
30
0.0
0
POINT
8
POINTS
10
2.79275
20
16.37003
30
0.0
0
POINT
8
POINTS
10
63.27774
20
36.81574
30
0.0
0
LINE
8
CONTOUR_CAP
10
-151.46442
20
41.35645
30
0.0
11
-151.46442
21
42.35645
31
0.0
0
LINE
8
CONTOUR_CAP
10
63.27774
20
35.81574
30
0.0
11
63.27774
21
36.81574
31
0.0
0
ENDSEC
0
EOF
