0
SECTION
2
HEADER
9
$INSUNITS
70
4
9
$MEASUREMENT
70
1
0
ENDSEC
0
SECTION
2
ENTITIES
0
LINE
8
CONTOUR_HOT
10
-388.02280
20
226.68216
30
0.0
11
-238.99720
21
226.68216
31
0.0
0
ARC
8
CONTOUR_HOT
10
-238.99720
20
184.85451
30
0.0
40
41.82765
50
64.58330
51
90.00000
0
LINE
8
CONTOUR_HOT
10
-221.04484
20
222.63368
30
0.0
11
-53.18865
21
142.86973
31
0.0
0
ARC
8
CONTOUR_HOT
10
0.00000
20
254.80055
30
0.0
40
123.92555
50
244.58330
51
270.00000
0
ARC
8
CONTOUR_HOT
10
0.00000
20
179.44272
30
0.0
40
48.56772
50
270.00000
51
307.00000
0
LINE
8
BELL_POLY
10
29.22878
20
140.65482
30
0.0
11
153.92936
21
234.62345
31
0.0
0
LINE
8
BELL_POLY
10
153.92936
20
234.62345
30
0.0
11
482.98830
21
292.64542
31
0.0
0
POINT
8
CONTROL
10
29.22878
20
140.65482
30
0.0
0
POINT
8
CONTROL
10
153.92936
20
234.62345
30
0.0
0
POINT
8
CONTROL
10
482.98830
20
292.64542
30
0.0
0
POINT
8
POINTS
10
-388.02280
20
226.68216
30
0.0
0
POINT
8
POINTS
10
-238.99720
20
226.68216
30
0.0
0
POINT
8
POINTS
10
-221.04484
20
222.63368
30
0.0
0
POINT
8
POINTS
10
-53.18865
20
142.86973
30
0.0
0
POINT
8
POINTS
10
0.00000
20
130.87501
30
0.0
0
POINT
8
POINTS
10
29.22878
20
140.65482
30
0.0
0
POINT
8
POINTS
10
482.98830
20
292.64542
30
0.0
0
LINE
8
CONTOUR_COOL
10
-388.02280
20
227.68216
30
0.0
11
-238.99720
21
227.68216
31
0.0
0
ARC
8
CONTOUR_COOL
10
-238.99720
20
185.85451
30
0.0
40
41.82765
50
64.58330
51
90.00000
0
LINE
8
CONTOUR_COOL
10
-221.04484
20
223.63368
30
0.0
11
-53.18865
21
143.86973
31
0.0
0
ARC
8
CONTOUR_COOL
10
0.00000
20
255.80055
30
0.0
40
123.92555
50
244.58330
51
270.00000
0
ARC
8
CONTOUR_COOL
10
0.00000
20
180.44272
30
0.0
40
48.56772
50
270.00000
51
307.00000
0
LINE
8
BELL_POLY
10
29.22878
20
141.65482
30
0.0
11
153.92936
21
235.62345
31
0.0
0
LINE
8
BELL_POLY
10
153.92936
20
235.62345
30
0.0
11
482.98830
21
293.64542
31
0.0
0
POINT
8
CONTROL
10
29.22878
20
141.65482
30
0.0
0
POINT
8
CONTROL
10
153.92936
20
235.62345
30
0.0
0
POINT
8
CONTROL
10
482.98830
20
293.64542
30
0.0
0
POINT
8
POINTS
10
-388.02280
20
227.68216
30
0.0
0
POINT
8
POINTS
10
-238.99720
20
227.68216
30
0.0
0
POINT
8
POINTS
10
-221.04484
20
223.63368
30
0.0
0
POINT
8
POINTS
10
-53.18865
20
143.86973
30
0.0
0
POINT
8
POINTS
10
0.00000
20
131.87501
30
0.0
0
POINT
8
POINTS
10
29.22878
20
141.65482
30
0.0
0
POINT
8
POINTS
10
482.98830
20
293.64542
30
0.0
0
LINE
8
CONTOUR_CAP
10
-388.02280
20
226.68216
30
0.0
11
-388.02280
21
227.68216
31
0.0
0
LINE
8
CONTOUR_CAP
10
482.98830
20
292.64542
30
0.0
11
482.98830
21
293.64542
31
0.0
0
ENDSEC
0
EOF
