0
SECTION
2
HEADER
9
$INSUNITS
70
4
9
$MEASUREMENT
70
1
0
ENDSEC
0
SECTION
2
ENTITIES
0
LWPOLYLINE
8
LAND_MAIN
90
22
70
1
10
1.32601
20
-388.02280
10
1.32601
20
-238.99720
10
1.31816
20
-230.02102
10
1.29339
20
-221.04484
10
0.65087
20
-53.18865
10
0.57751
20
-26.59432
10
0.55425
20
0.00000
10
0.57240
20
14.61439
10
0.63303
20
29.22878
10
1.44574
20
256.10854
10
1.85735
20
482.98830
10
0.00000
20
482.98830
10
0.00000
20
256.10854
10
0.00000
20
29.22878
10
0.00000
20
14.61439
10
0.00000
20
0.00000
10
0.00000
20
-26.59432
10
0.00000
20
-53.18865
10
0.00000
20
-221.04484
10
0.00000
20
-230.02102
10
0.00000
20
-238.99720
10
0.00000
20
-388.02280
0
POINT
8
LAND_SNAP
10
0.00000
20
-388.02280
30
0.0
0
POINT
8
LAND_SNAP
10
0.00000
20
482.98830
30
0.0
0
POINT
8
LAND_SNAP
10
0.00000
20
0.00000
30
0.0
0
ENDSEC
0
EOF
