0
SECTION
2
HEADER
9
$INSUNITS
70
4
9
$MEASUREMENT
70
1
0
ENDSEC
0
SECTION
2
ENTITIES
0
LWPOLYLINE
8
LAND_MAIN
90
26
70
1
10
1.51112
20
-189.71091
10
1.51109
20
-67.92428
10
1.47541
20
-61.50951
10
1.36093
20
-55.09475
10
1.02396
20
-41.71091
10
2.09370
20
-30.71091
10
1.19281
20
-12.82953
10
0.96428
20
-6.41477
10
0.89343
20
0.00000
10
0.91258
20
1.63363
10
0.96938
20
3.26725
10
2.26108
20
38.64816
10
3.04278
20
74.02907
10
0.00000
20
74.02907
10
0.00000
20
38.64816
10
0.00000
20
3.26725
10
0.00000
20
1.63363
10
0.00000
20
0.00000
10
0.00000
20
-6.41477
10
0.00000
20
-12.82953
10
0.00000
20
-30.71091
10
0.00000
20
-41.71091
10
0.00000
20
-55.09475
10
0.00000
20
-61.50951
10
0.00000
20
-67.92428
10
0.00000
20
-189.71091
0
LWPOLYLINE
8
LAND_EXTRA
90
12
70
1
10
2.71112
20
-189.71091
10
4.22223
20
-189.71091
10
4.22217
20
-67.92428
10
4.15082
20
-61.50951
10
3.92186
20
-55.09475
10
3.24792
20
-41.71091
10
2.22396
20
-41.71091
10
2.22396
20
-41.71091
10
2.56093
20
-55.09475
10
2.67541
20
-61.50951
10
2.71109
20
-67.92428
10
2.71112
20
-189.71091
0
POINT
8
LAND_SNAP
10
0.00000
20
-189.71091
30
0.0
0
POINT
8
LAND_SNAP
10
0.00000
20
74.02907
30
0.0
0
POINT
8
LAND_SNAP
10
0.00000
20
0.00000
30
0.0
0
ENDSEC
0
EOF
