  0
SECTION
  2
HEADER
  9
$ACADVER
  1
AC1024
  9
$ACADMAINTVER
 70
6
  9
$DWGCODEPAGE
  3
ANSI_1252
  9
$LASTSAVEDBY
  1
ezdxf
  9
$INSBASE
 10
0.0
 20
0.0
 30
0.0
  9
$EXTMIN
 10
1e+20
 20
1e+20
 30
1e+20
  9
$EXTMAX
 10
-1e+20
 20
-1e+20
 30
-1e+20
  9
$LIMMIN
 10
0.0
 20
0.0
  9
$LIMMAX
 10
420.0
 20
297.0
  9
$ORTHOMODE
 70
0
  9
$REGENMODE
 70
1
  9
$FILLMODE
 70
1
  9
$QTEXTMODE
 70
0
  9
$MIRRTEXT
 70
1
  9
$LTSCALE
 40
1.0
  9
$ATTMODE
 70
1
  9
$TEXTSIZE
 40
2.5
  9
$TRACEWID
 40
1.0
  9
$TEXTSTYLE
  7
Standard
  9
$CLAYER
  8
0
  9
$CELTYPE
  6
ByLayer
  9
$CECOLOR
 62
256
  9
$CELTSCALE
 40
1.0
  9
$DISPSILH
 70
0
  9
$DIMSCALE
 40
1.0
  9
$DIMASZ
 40
2.5
  9
$DIMEXO
 40
0.625
  9
$DIMDLI
 40
3.75
  9
$DIMRND
 40
0.0
  9
$DIMDLE
 40
0.0
  9
$DIMEXE
 40
1.25
  9
$DIMTP
 40
0.0
  9
$DIMTM
 40
0.0
  9
$DIMTXT
 40
2.5
  9
$DIMCEN
 40
2.5
  9
$DIMTSZ
 40
0.0
  9
$DIMTOL
 70
0
  9
$DIMLIM
 70
0
  9
$DIMTIH
 70
0
  9
$DIMTOH
 70
0
  9
$DIMSE1
 70
0
  9
$DIMSE2
 70
0
  9
$DIMTAD
 70
1
  9
$DIMZIN
 70
8
  9
$DIMBLK
  1

  9
$DIMASO
 70
1
  9
$DIMSHO
 70
1
  9
$DIMPOST
  1

  9
$DIMAPOST
  1

  9
$DIMALT
 70
0
  9
$DIMALTD
 70
3
  9
$DIMALTF
 40
0.03937007874
  9
$DIMLFAC
 40
1.0
  9
$DIMTOFL
 70
1
  9
$DIMTVP
 40
0.0
  9
$DIMTIX
 70
0
  9
$DIMSOXD
 70
0
  9
$DIMSAH
 70
0
  9
$DIMBLK1
  1

  9
$DIMBLK2
  1

  9
$DIMSTYLE
  2
ISO-25
  9
$DIMCLRD
 70
0
  9
$DIMCLRE
 70
0
  9
$DIMCLRT
 70
0
  9
$DIMTFAC
 40
1.0
  9
$DIMGAP
 40
0.625
  9
$DIMJUST
 70
0
  9
$DIMSD1
 70
0
  9
$DIMSD2
 70
0
  9
$DIMTOLJ
 70
0
  9
$DIMTZIN
 70
8
  9
$DIMALTZ
 70
0
  9
$DIMALTTZ
 70
0
  9
$DIMUPT
 70
0
  9
$DIMDEC
 70
2
  9
$DIMTDEC
 70
2
  9
$DIMALTU
 70
2
  9
$DIMALTTD
 70
3
  9
$DIMTXSTY
  7
Standard
  9
$DIMAUNIT
 70
0
  9
$DIMADEC
 70
0
  9
$DIMALTRND
 40
0.0
  9
$DIMAZIN
 70
0
  9
$DIMDSEP
 70
44
  9
$DIMATFIT
 70
3
  9
$DIMFRAC
 70
0
  9
$DIMLDRBLK
  1

  9
$DIMLUNIT
 70
2
  9
$DIMLWD
 70
-2
  9
$DIMLWE
 70
-2
  9
$DIMTMOVE
 70
0
  9
$DIMFXL
 40
1.0
  9
$DIMFXLON
 70
0
  9
$DIMJOGANG
 40
0.785398163397
  9
$DIMTFILL
 70
0
  9
$DIMTFILLCLR
 70
0
  9
$DIMARCSYM
 70
0
  9
$DIMLTYPE
  6

  9
$DIMLTEX1
  6

  9
$DIMLTEX2
  6

  9
$DIMTXTDIRECTION
 70
0
  9
$LUNITS
 70
2
  9
$LUPREC
 70
4
  9
$SKETCHINC
 40
1.0
  9
$FILLETRAD
 40
10.0
  9
$AUNITS
 70
0
  9
$AUPREC
 70
2
  9
$MENU
  1
.
  9
$ELEVATION
 40
0.0
  9
$PELEVATION
 40
0.0
  9
$THICKNESS
 40
0.0
  9
$LIMCHECK
 70
0
  9
$CHAMFERA
 40
0.0
  9
$CHAMFERB
 40
0.0
  9
$CHAMFERC
 40
0.0
  9
$CHAMFERD
 40
0.0
  9
$SKPOLY
 70
0
  9
$TDCREATE
 40
2461001.045949074
  9
$TDUCREATE
 40
2458532.153996898
  9
$TDUPDATE
 40
2461001.045949074
  9
$TDUUPDATE
 40
2458532.1544311
  9
$TDINDWG
 40
0.0
  9
$TDUSRTIMER
 40
0.0
  9
$USRTIMER
 70
1
  9
$ANGBASE
 50
0.0
  9
$ANGDIR
 70
0
  9
$PDMODE
 70
0
  9
$PDSIZE
 40
0.0
  9
$PLINEWID
 40
0.0
  9
$SPLFRAME
 70
0
  9
$SPLINETYPE
 70
6
  9
$SPLINESEGS
 70
8
  9
$HANDSEED
  5
33
  9
$SURFTAB1
 70
6
  9
$SURFTAB2
 70
6
  9
$SURFTYPE
 70
6
  9
$SURFU
 70
6
  9
$SURFV
 70
6
  9
$UCSBASE
  2

  9
$UCSNAME
  2

  9
$UCSORG
 10
0.0
 20
0.0
 30
0.0
  9
$UCSXDIR
 10
1.0
 20
0.0
 30
0.0
  9
$UCSYDIR
 10
0.0
 20
1.0
 30
0.0
  9
$UCSORTHOREF
  2

  9
$UCSORTHOVIEW
 70
0
  9
$UCSORGTOP
 10
0.0
 20
0.0
 30
0.0
  9
$UCSORGBOTTOM
 10
0.0
 20
0.0
 30
0.0
  9
$UCSORGLEFT
 10
0.0
 20
0.0
 30
0.0
  9
$UCSORGRIGHT
 10
0.0
 20
0.0
 30
0.0
  9
$UCSORGFRONT
 10
0.0
 20
0.0
 30
0.0
  9
$UCSORGBACK
 10
0.0
 20
0.0
 30
0.0
  9
$PUCSBASE
  2

  9
$PUCSNAME
  2

  9
$PUCSORG
 10
0.0
 20
0.0
 30
0.0
  9
$PUCSXDIR
 10
1.0
 20
0.0
 30
0.0
  9
$PUCSYDIR
 10
0.0
 20
1.0
 30
0.0
  9
$PUCSORTHOREF
  2

  9
$PUCSORTHOVIEW
 70
0
  9
$PUCSORGTOP
 10
0.0
 20
0.0
 30
0.0
  9
$PUCSORGBOTTOM
 10
0.0
 20
0.0
 30
0.0
  9
$PUCSORGLEFT
 10
0.0
 20
0.0
 30
0.0
  9
$PUCSORGRIGHT
 10
0.0
 20
0.0
 30
0.0
  9
$PUCSORGFRONT
 10
0.0
 20
0.0
 30
0.0
  9
$PUCSORGBACK
 10
0.0
 20
0.0
 30
0.0
  9
$USERI1
 70
0
  9
$USERI2
 70
0
  9
$USERI3
 70
0
  9
$USERI4
 70
0
  9
$USERI5
 70
0
  9
$USERR1
 40
0.0
  9
$USERR2
 40
0.0
  9
$USERR3
 40
0.0
  9
$USERR4
 40
0.0
  9
$USERR5
 40
0.0
  9
$WORLDVIEW
 70
1
  9
$SHADEDGE
 70
3
  9
$SHADEDIF
 70
70
  9
$TILEMODE
 70
1
  9
$MAXACTVP
 70
64
  9
$PINSBASE
 10
0.0
 20
0.0
 30
0.0
  9
$PLIMCHECK
 70
0
  9
$PEXTMIN
 10
1e+20
 20
1e+20
 30
1e+20
  9
$PEXTMAX
 10
-1e+20
 20
-1e+20
 30
-1e+20
  9
$PLIMMIN
 10
0.0
 20
0.0
  9
$PLIMMAX
 10
420.0
 20
297.0
  9
$UNITMODE
 70
0
  9
$VISRETAIN
 70
1
  9
$PLINEGEN
 70
0
  9
$PSLTSCALE
 70
1
  9
$TREEDEPTH
 70
3020
  9
$CMLSTYLE
  2
Standard
  9
$CMLJUST
 70
0
  9
$CMLSCALE
 40
20.0
  9
$PROXYGRAPHICS
 70
1
  9
$MEASUREMENT
 70
1
  9
$CELWEIGHT
370
-1
  9
$ENDCAPS
280
0
  9
$JOINSTYLE
280
0
  9
$LWDISPLAY
290
0
  9
$INSUNITS
 70
6
  9
$HYPERLINKBASE
  1

  9
$STYLESHEET
  1

  9
$XEDIT
290
1
  9
$CEPSNTYPE
380
0
  9
$PSTYLEMODE
290
1
  9
$FINGERPRINTGUID
  2
{18191907-F532-492E-BAA4-DC46DD306B81}
  9
$VERSIONGUID
  2
{8FC5DD4F-23AD-485D-823F-CF6CA6499DAB}
  9
$EXTNAMES
290
1
  9
$PSVPSCALE
 40
0.0
  9
$OLESTARTUP
290
0
  9
$SORTENTS
280
127
  9
$INDEXCTL
280
0
  9
$HIDETEXT
280
1
  9
$XCLIPFRAME
280
1
  9
$HALOGAP
280
0
  9
$OBSCOLOR
 70
257
  9
$OBSLTYPE
280
0
  9
$INTERSECTIONDISPLAY
280
0
  9
$INTERSECTIONCOLOR
 70
257
  9
$DIMASSOC
280
2
  9
$PROJECTNAME
  1

  9
$CAMERADISPLAY
290
0
  9
$LENSLENGTH
 40
50.0
  9
$CAMERAHEIGHT
 40
0.0
  9
$STEPSPERSEC
 40
24.0
  9
$STEPSIZE
 40
100.0
  9
$3DDWFPREC
 40
2.0
  9
$PSOLWIDTH
 40
0.005
  9
$PSOLHEIGHT
 40
0.08
  9
$LOFTANG1
 40
1.570796326795
  9
$LOFTANG2
 40
1.570796326795
  9
$LOFTMAG1
 40
0.0
  9
$LOFTMAG2
 40
0.0
  9
$LOFTPARAM
 70
7
  9
$LOFTNORMALS
280
1
  9
$LATITUDE
 40
37.795
  9
$LONGITUDE
 40
-122.394
  9
$NORTHDIRECTION
 40
0.0
  9
$TIMEZONE
 70
-8000
  9
$LIGHTGLYPHDISPLAY
280
1
  9
$TILEMODELIGHTSYNCH
280
1
  9
$CMATERIAL
347
20
  9
$SOLIDHIST
280
0
  9
$SHOWHIST
280
1
  9
$DWFFRAME
280
2
  9
$DGNFRAME
280
2
  9
$REALWORLDSCALE
290
1
  9
$INTERFERECOLOR
 62
256
  9
$CSHADOW
280
0
  9
$SHADOWPLANELOCATION
 40
0.0
  0
ENDSEC
  0
SECTION
  2
CLASSES
  0
CLASS
  1
ACDBDICTIONARYWDFLT
  2
AcDbDictionaryWithDefault
  3
ObjectDBX Classes
 90
0
 91
0
280
0
281
0
  0
CLASS
  1
SUN
  2
AcDbSun
  3
SCENEOE
 90
1153
 91
0
280
0
281
0
  0
CLASS
  1
VISUALSTYLE
  2
AcDbVisualStyle
  3
ObjectDBX Classes
 90
4095
 91
0
280
0
281
0
  0
CLASS
  1
MATERIAL
  2
AcDbMaterial
  3
ObjectDBX Classes
 90
1153
 91
0
280
0
281
0
  0
CLASS
  1
SCALE
  2
AcDbScale
  3
ObjectDBX Classes
 90
1153
 91
0
280
0
281
0
  0
CLASS
  1
TABLESTYLE
  2
AcDbTableStyle
  3
ObjectDBX Classes
 90
4095
 91
0
280
0
281
0
  0
CLASS
  1
MLEADERSTYLE
  2
AcDbMLeaderStyle
  3
ACDB_MLEADERSTYLE_CLASS
 90
4095
 91
0
280
0
281
0
  0
CLASS
  1
DICTIONARYVAR
  2
AcDbDictionaryVar
  3
ObjectDBX Classes
 90
0
 91
0
280
0
281
0
  0
CLASS
  1
CELLSTYLEMAP
  2
AcDbCellStyleMap
  3
ObjectDBX Classes
 90
1152
 91
0
280
0
281
0
  0
CLASS
  1
MENTALRAYRENDERSETTINGS
  2
AcDbMentalRayRenderSettings
  3
SCENEOE
 90
1024
 91
0
280
0
281
0
  0
CLASS
  1
ACDBDETAILVIEWSTYLE
  2
AcDbDetailViewStyle
  3
ObjectDBX Classes
 90
1025
 91
0
280
0
281
0
  0
CLASS
  1
ACDBSECTIONVIEWSTYLE
  2
AcDbSectionViewStyle
  3
ObjectDBX Classes
 90
1025
 91
0
280
0
281
0
  0
CLASS
  1
RASTERVARIABLES
  2
AcDbRasterVariables
  3
ISM
 90
0
 91
0
280
0
281
0
  0
CLASS
  1
ACDBPLACEHOLDER
  2
AcDbPlaceHolder
  3
ObjectDBX Classes
 90
0
 91
0
280
0
281
0
  0
CLASS
  1
LAYOUT
  2
AcDbLayout
  3
ObjectDBX Classes
 90
0
 91
0
280
0
281
0
  0
ENDSEC
  0
SECTION
  2
TABLES
  0
TABLE
  2
VPORT
  5
8
330
0
100
AcDbSymbolTable
 70
1
  0
VPORT
  5
23
330
8
100
AcDbSymbolTableRecord
100
AcDbViewportTableRecord
  2
*Active
 70
0
 10
0.0
 20
0.0
 11
1.0
 21
1.0
 12
0.0
 22
0.0
 13
0.0
 23
0.0
 14
0.5
 24
0.5
 15
0.5
 25
0.5
 16
0.0
 26
0.0
 36
1.0
 17
0.0
 27
0.0
 37
0.0
 40
1000.0
 41
1.34
 42
50.0
 43
0.0
 44
0.0
 50
0.0
 51
0.0
 71
0
 72
1000
 73
1
 74
3
 75
0
 76
0
 77
0
 78
0
281
0
 65
0
146
0.0
  0
ENDTAB
  0
TABLE
  2
LTYPE
  5
2
330
0
100
AcDbSymbolTable
 70
3
  0
LTYPE
  5
24
330
2
100
AcDbSymbolTableRecord
100
AcDbLinetypeTableRecord
  2
ByBlock
 70
0
  3

 72
65
 73
0
 40
0.0
  0
LTYPE
  5
25
330
2
100
AcDbSymbolTableRecord
100
AcDbLinetypeTableRecord
  2
ByLayer
 70
0
  3

 72
65
 73
0
 40
0.0
  0
LTYPE
  5
26
330
2
100
AcDbSymbolTableRecord
100
AcDbLinetypeTableRecord
  2
Continuous
 70
0
  3

 72
65
 73
0
 40
0.0
  0
ENDTAB
  0
TABLE
  2
LAYER
  5
1
330
0
100
AcDbSymbolTable
 70
2
  0
LAYER
  5
27
330
1
100
AcDbSymbolTableRecord
100
AcDbLayerTableRecord
  2
0
 70
0
 62
7
  6
Continuous
370
-3
390
13
347
21
  0
LAYER
  5
28
330
1
100
AcDbSymbolTableRecord
100
AcDbLayerTableRecord
  2
Defpoints
 70
0
 62
7
  6
Continuous
290
0
370
-3
390
13
347
21
  0
ENDTAB
  0
TABLE
  2
STYLE
  5
5
330
0
100
AcDbSymbolTable
 70
1
  0
STYLE
  5
29
330
5
100
AcDbSymbolTableRecord
100
AcDbTextStyleTableRecord
  2
Standard
 70
0
 40
0.0
 41
1.0
 50
0.0
 71
0
 42
2.5
  3
txt
  4

  0
ENDTAB
  0
TABLE
  2
VIEW
  5
7
330
0
100
AcDbSymbolTable
 70
0
  0
ENDTAB
  0
TABLE
  2
UCS
  5
6
330
0
100
AcDbSymbolTable
 70
0
  0
ENDTAB
  0
TABLE
  2
APPID
  5
3
330
0
100
AcDbSymbolTable
 70
3
  0
APPID
  5
2A
330
3
100
AcDbSymbolTableRecord
100
AcDbRegAppTableRecord
  2
ACAD
 70
0
  0
APPID
  5
30
330
3
100
AcDbSymbolTableRecord
100
AcDbRegAppTableRecord
  2
HATCHBACKGROUNDCOLOR
 70
0
  0
APPID
  5
31
330
3
100
AcDbSymbolTableRecord
100
AcDbRegAppTableRecord
  2
EZDXF
 70
0
  0
ENDTAB
  0
TABLE
  2
DIMSTYLE
  5
4
330
0
100
AcDbSymbolTable
 70
1
100
AcDbDimStyleTable
  0
DIMSTYLE
105
2B
330
4
100
AcDbSymbolTableRecord
100
AcDbDimStyleTableRecord
  2
Standard
 70
0
 40
1.0
 41
2.5
 42
0.625
 43
3.75
 44
1.25
 45
0.0
 46
0.0
 47
0.0
 48
0.0
 49
2.5
140
2.5
141
2.5
142
0.0
143
0.03937007874
144
1.0
145
0.0
146
1.0
147
0.625
148
0.0
 69
0
 70
0
 71
0
 72
0
 73
0
 74
0
 75
0
 76
0
 77
1
 78
8
 79
3
170
0
171
3
172
1
173
0
174
0
175
0
176
0
177
0
178
0
179
2
271
2
272
2
273
2
274
3
275
0
276
0
277
2
278
44
279
0
280
0
281
0
282
0
283
0
284
8
285
0
286
0
288
0
289
3
290
0
371
-2
372
-2
  0
ENDTAB
  0
TABLE
  2
BLOCK_RECORD
  5
9
330
0
100
AcDbSymbolTable
 70
2
  0
BLOCK_RECORD
  5
17
330
9
100
AcDbSymbolTableRecord
100
AcDbBlockTableRecord
  2
*Model_Space
340
1A
 70
0
280
1
281
0
  0
BLOCK_RECORD
  5
1B
330
9
100
AcDbSymbolTableRecord
100
AcDbBlockTableRecord
  2
*Paper_Space
340
1E
 70
0
280
1
281
0
  0
ENDTAB
  0
ENDSEC
  0
SECTION
  2
BLOCKS
  0
BLOCK
  5
18
330
17
100
AcDbEntity
  8
0
100
AcDbBlockBegin
  2
*Model_Space
 70
0
 10
0.0
 20
0.0
 30
0.0
  3
*Model_Space
  1

  0
ENDBLK
  5
19
330
17
100
AcDbEntity
  8
0
100
AcDbBlockEnd
  0
BLOCK
  5
1C
330
1B
100
AcDbEntity
  8
0
100
AcDbBlockBegin
  2
*Paper_Space
 70
0
 10
0.0
 20
0.0
 30
0.0
  3
*Paper_Space
  1

  0
ENDBLK
  5
1D
330
1B
100
AcDbEntity
  8
0
100
AcDbBlockEnd
  0
ENDSEC
  0
SECTION
  2
ENTITIES
  0
LWPOLYLINE
  5
2F
330
17
100
AcDbEntity
  8
NOZZLE_CONTOUR
100
AcDbPolyline
 90
535
 70
0
 10
0.0
 20
0.0689880298037221
 10
0.0015496007041999604
 20
0.0689880298037221
 10
0.003099201408399921
 20
0.0689880298037221
 10
0.004648802112599881
 20
0.0689880298037221
 10
0.006198402816799842
 20
0.0689880298037221
 10
0.007748003520999774
 20
0.0689880298037221
 10
0.009297604225199735
 20
0.0689880298037221
 10
0.010847204929399695
 20
0.0689880298037221
 10
0.012396805633599656
 20
0.0689880298037221
 10
0.013946406337799616
 20
0.0689880298037221
 10
0.015496007041999577
 20
0.0689880298037221
 10
0.017045607746199537
 20
0.0689880298037221
 10
0.018595208450399497
 20
0.0689880298037221
 10
0.02014480915459943
 20
0.0689880298037221
 10
0.02169440985879939
 20
0.0689880298037221
 10
0.02324401056299935
 20
0.0689880298037221
 10
0.02479361126719931
 20
0.0689880298037221
 10
0.026343211971399272
 20
0.0689880298037221
 10
0.027892812675599232
 20
0.0689880298037221
 10
0.029442413379799193
 20
0.0689880298037221
 10
0.030992014083999153
 20
0.0689880298037221
 10
0.032541614788199114
 20
0.0689880298037221
 10
0.034091215492399074
 20
0.0689880298037221
 10
0.03564081619659901
 20
0.0689880298037221
 10
0.03719041690079897
 20
0.0689880298037221
 10
0.03874001760499893
 20
0.0689880298037221
 10
0.04028961830919889
 20
0.0689880298037221
 10
0.04183921901339885
 20
0.0689880298037221
 10
0.04338881971759881
 20
0.0689880298037221
 10
0.044938420421798755
 20
0.0689880298037221
 10
0.046488021125998716
 20
0.0689880298037221
 10
0.04803762183019866
 20
0.0689880298037221
 10
0.04958722253439862
 20
0.0689880298037221
 10
0.05113682323859858
 20
0.0689880298037221
 10
0.052686423942798544
 20
0.0689880298037221
 10
0.054236024646998504
 20
0.0689880298037221
 10
0.055785625351198465
 20
0.0689880298037221
 10
0.057335226055398425
 20
0.0689880298037221
 10
0.05888482675959837
 20
0.0689880298037221
 10
0.06043442746379833
 20
0.0689880298037221
 10
0.06043442746379833
 20
0.0689880298037221
 10
0.06060240919417283
 20
0.06898766024418324
 10
0.06077038767244146
 20
0.06898655157272131
 10
0.060938359646561385
 20
0.06898470381080003
 10
0.061106321864615606
 20
0.06898211699419188
 10
0.061274271074876055
 20
0.06897879117297727
 10
0.061442204025866476
 20
0.06897472641154373
 10
0.06161011746642536
 20
0.06896992278858452
 10
0.06177800814576899
 20
0.06896438039709724
 10
0.06194587281355422
 20
0.06895809934438185
 10
0.06211370821994154
 20
0.06895107975203882
 10
0.062281511115657925
 20
0.06894332175596657
 10
0.062449278252059745
 20
0.06893482550635897
 10
0.06261700638119566
 20
0.06892559116770239
 10
0.06278469225586954
 20
0.06891561891877249
 10
0.06295233262970323
 20
0.0689049089526308
 10
0.06311992425719955
 20
0.06889346147662093
 10
0.06328746389380498
 20
0.06888127671236467
 10
0.06345494829597256
 20
0.06886835489575754
 10
0.06362237422122466
 20
0.06885469627696436
 10
0.06378973842821575
 20
0.06884030112041431
 10
0.06395703767679518
 20
0.06882516970479585
 10
0.06412426872806988
 20
0.06880930232305138
 10
0.06429142834446702
 20
0.06879269928237146
 10
0.0644585132897968
 20
0.06877536090418893
 10
0.06462552032931505
 20
0.06875728752417269
 10
0.0647924462297858
 20
0.06873847949222119
 10
0.06495928775954396
 20
0.0687189371724556
 10
0.0651260416885578
 20
0.06869866094321289
 10
0.0652927047884916
 20
0.06867765119703836
 10
0.06545927383276802
 20
0.06865590834067815
 10
0.06562574559663065
 20
0.06863343279507131
 10
0.06579211685720641
 20
0.06861022499534167
 10
0.06595838439356796
 20
0.06858628539078941
 10
0.06612454498679605
 20
0.06856161444488235
 10
0.06629059542004184
 20
0.06853621263524699
 10
0.06645653247858913
 20
0.06851008045365929
 10
0.0666223529499167
 20
0.06848321840603509
 10
0.0667880536237604
 20
0.06845562701242036
 10
0.06695363129217537
 20
0.06842730680698114
 10
0.06711908274959813
 20
0.06839825833799315
 10
0.06728440479290859
 20
0.06836848216783119
 10
0.06744959422149213
 20
0.06833797887295831
 10
0.06761464783730155
 20
0.06830674904391458
 10
0.06777956244491891
 20
0.06827479328530568
 10
0.06794433485161752
 20
0.06824211221579121
 10
0.06810896186742363
 20
0.06820870646807271
 10
0.06827344030517828
 20
0.06817457668888138
 10
0.06843776698059895
 20
0.06813972353896557
 10
0.06860193871234117
 20
0.06810414769307803
 10
0.06876595232206027
 20
0.06806784983996281
 10
0.06892980463447271
 20
0.06803083068234192
 10
0.06909349247741765
 20
0.06799309093690176
 10
0.06925701268191842
 20
0.06795463133427918
 10
0.06942036208224377
 20
0.06791545261904741
 10
0.06958353751596917
 20
0.06787555554970162
 10
0.06974653582403814
 20
0.0678349408986442
 10
0.06990935385082325
 20
0.06779360945216985
 10
0.07007198844418734
 20
0.06775156201045035
 10
0.0702344364555445
 20
0.06770879938751903
 10
0.070396694739921
 20
0.06766532241125509
 10
0.07055876015601621
 20
0.06762113192336748
 10
0.07072062956626343
 20
0.06757622877937866
 10
0.07088229983689057
 20
0.06753061384860806
 10
0.07104376783798089
 20
0.06748428801415514
 10
0.07120503044353353
 20
0.06743725217288243
 10
0.07136608453152411
 20
0.06738950723539812
 10
0.0715269269839651
 20
0.06734105412603834
 10
0.07168755468696618
 20
0.06729189378284942
 10
0.07184796453079462
 20
0.06724202715756958
 10
0.07200815340993535
 20
0.06719145521561065
 10
0.07216811822315117
 20
0.06714017893603927
 10
0.07232785587354282
 20
0.06708819931155793
 10
0.07248736326860879
 20
0.06703551734848587
 10
0.07264663732030535
 20
0.06698213406673945
 10
0.07280567494510629
 20
0.06692805049981251
 10
0.07296447306406251
 20
0.06687326769475632
 10
0.0731230286028618
 20
0.06681778671215935
 10
0.07328133849188823
 20
0.06676160862612662
 10
0.07343939966628162
 20
0.06670473452425904
 10
0.07359720906599689
 20
0.0666471655076323
 10
0.07375476363586325
 20
0.0665889026907756
 10
0.07391206032564347
 20
0.0665299472016499
 10
0.07406909609009275
 20
0.06647030018162635
 10
0.07422586788901782
 20
0.06640996278546396
 10
0.07438237268733575
 20
0.06634893618128737
 10
0.0745386074551327
 20
0.06628722155056424
 10
0.07469456916772259
 20
0.06622482008808228
 10
0.07485025480570567
 20
0.06616173300192621
 10
0.07500566135502693
 20
0.06609796151345433
 10
0.0751607858070345
 20
0.0660335068572749
 10
0.07531562515853789
 20
0.06596837028122221
 10
0.07547017641186611
 20
0.06590255304633243
 10
0.07562443657492572
 20
0.06583605642681922
 10
0.07577840266125874
 20
0.06576888171004905
 10
0.0759320716901005
 20
0.06570103019651624
 10
0.07608544068643729
 20
0.06563250319981782
 10
0.07623850668106404
 20
0.06556330204662814
 10
0.07639126671064173
 20
0.06549342807667305
 10
0.07654371781775479
 20
0.06542288264270413
 10
0.07669585705096835
 20
0.06535166711047238
 10
0.07684768146488538
 20
0.06527978285870184
 10
0.0769991881202037
 20
0.06520723127906287
 10
0.07715037408377295
 20
0.06513401377614521
 10
0.07730123642865126
 20
0.06506013176743079
 10
0.07745177223416203
 20
0.06498558668326632
 10
0.07760197858595036
 20
0.06491037996683555
 10
0.07775185257603959
 20
0.06483451307413135
 10
0.07790139130288753
 20
0.0647579874739275
 10
0.07805059187144264
 20
0.06468080464775033
 10
0.07819945139320006
 20
0.06460296608984996
 10
0.0783479669862576
 20
0.06452447330717137
 10
0.07849613577537146
 20
0.06444532781932527
 10
0.0786439548920119
 20
0.0643655311585587
 10
0.07879142147441887
 20
0.06428508486972526
 10
0.07893853266765724
 20
0.06420399051025533
 10
0.07908528562367226
 20
0.0641222496501258
 10
0.07923167750134456
 20
0.06403986387182982
 10
0.07937770546654524
 20
0.06395683477034597
 10
0.07952336669219064
 20
0.0638731639531076
 10
0.07952336669219064
 20
0.06387316395310759
 10
0.08418419945174548
 20
0.06118223090473078
 10
0.08884503221130031
 20
0.05849129785635397
 10
0.09350586497085515
 20
0.05580036480797716
 10
0.09816669773041
 20
0.053109431759600347
 10
0.10282753048996483
 20
0.05041849871122353
 10
0.10748836324951969
 20
0.04772756566284672
 10
0.11214919600907453
 20
0.04503663261446991
 10
0.11681002876862936
 20
0.04234569956609309
 10
0.1214708615281842
 20
0.03965476651771628
 10
0.12613169428773904
 20
0.03696383346933947
 10
0.13079252704729388
 20
0.034272900420962656
 10
0.13545335980684872
 20
0.03158196737258584
 10
0.14011419256640356
 20
0.028891034324209027
 10
0.1447750253259584
 20
0.02620010127583221
 10
0.1447750253259584
 20
0.02620010127583221
 10
0.14489987780508304
 20
0.026128383432485025
 10
0.14502504463239788
 20
0.026057215631213167
 10
0.14515052338468845
 20
0.025986599249816597
 10
0.14527631163270133
 20
0.02591653565541988
 10
0.14540240694119136
 20
0.02584702620444565
 10
0.14552880686896874
 20
0.025778072242588417
 10
0.14565550896894627
 20
0.025709675104788488
 10
0.14578251078818671
 20
0.025641836115206127
 10
0.14590980986795032
 20
0.025574556587195908
 10
0.1460374037437424
 20
0.025507837823281292
 10
0.14616528994536104
 20
0.025441681115129438
 10
0.146293465996945
 20
0.025376087743526152
 10
0.14642192941702148
 20
0.025311058978351116
 10
0.14655067771855435
 20
0.025246596078553306
 10
0.14667970840899214
 20
0.02518270029212662
 10
0.14680901899031643
 20
0.025119372856085686
 10
0.14693860695909006
 20
0.02505661499644198
 10
0.14706846980650576
 20
0.02499442792818
 10
0.14719860501843465
 20
0.02493281285523382
 10
0.14732901007547486
 20
0.024871770970463752
 10
0.1474596824530003
 20
0.024811303455633253
 10
0.14759061962120976
 20
0.024751411481386043
 10
0.14772181904517556
 20
0.024692096207223443
 10
0.1478532781848928
 20
0.024633358781481953
 10
0.1479849944953286
 20
0.024575200341310974
 10
0.14811696542647118
 20
0.024517622012650817
 10
0.14824918842337942
 20
0.024460624910210928
 10
0.1483816609262322
 20
0.02440421013744826
 10
0.14851438037037795
 20
0.024348378786545957
 10
0.14864734418638445
 20
0.024293131938392155
 10
0.14878054980008837
 20
0.024238470662559117
 10
0.1489139946326453
 20
0.024184396017282478
 10
0.1490476761005795
 20
0.0241309090494408
 10
0.14918159161583402
 20
0.024078010794535254
 10
0.1493157385858208
 20
0.024025702276669617
 10
0.1494501144134709
 20
0.02397398450853043
 10
0.14958471649728455
 20
0.02392285849136738
 10
0.14971954223138187
 20
0.023872325214973938
 10
0.14985458900555304
 20
0.023822385657668168
 10
0.149989854205309
 20
0.023773040786273836
 10
0.1501253352119319
 20
0.02372429155610163
 10
0.15026102940252598
 20
0.023676138910930716
 10
0.15039693415006822
 20
0.023628583782990445
 10
0.15053304682345928
 20
0.02358162709294229
 10
0.15066936478757437
 20
0.023535269749862066
 10
0.15080588540331427
 20
0.023489512651222278
 10
0.15094260602765655
 20
0.023444356682874784
 10
0.15107952401370653
 20
0.023399802719033642
 10
0.15121663671074864
 20
0.023355851622258162
 10
0.15135394146429784
 20
0.023312504243436224
 10
0.1514914356161508
 20
0.0232697614217678
 10
0.15162911650443744
 20
0.023227623984748716
 10
0.15176698146367257
 20
0.023186092748154627
 10
0.15190502782480736
 20
0.023145168516025202
 10
0.15204325291528106
 20
0.0231048520806486
 10
0.15218165405907277
 20
0.023065144222546102
 10
0.15232022857675315
 20
0.023026045710457008
 10
0.15245897378553647
 20
0.022987557301323742
 10
0.15259788699933238
 20
0.022949679740277215
 10
0.15273696552879795
 20
0.022912413760622405
 10
0.1528762066813898
 20
0.022875760083824144
 10
0.15301560776141615
 20
0.022839719419493143
 10
0.1531551660700891
 20
0.022804292465372272
 10
0.1532948789055768
 20
0.022769479907323052
 10
0.15343474356305573
 20
0.022735282419312372
 10
0.15357475733476317
 20
0.02270170066339943
 10
0.15371491751004954
 20
0.022668735289722935
 10
0.15385522137543092
 20
0.0226363869364885
 10
0.15399566621464156
 20
0.02260465622995632
 10
0.15413624930868652
 20
0.02257354378442898
 10
0.15427696793589415
 20
0.022543050202239664
 10
0.154417819371969
 20
0.022513176073740405
 10
0.15455880089004442
 20
0.022483921977290683
 10
0.15469990976073536
 20
0.02245528847924625
 10
0.1548411432521913
 20
0.02242727613394814
 10
0.15498249863014907
 20
0.02239988548371194
 10
0.1551239731579857
 20
0.022373117058817317
 10
0.15526556409677159
 20
0.022346971377497707
 10
0.15540726870532343
 20
0.022321448945930314
 10
0.1555490842402572
 20
0.022296550258226314
 10
0.15569100795604146
 20
0.022272275796421263
 10
0.15583303710505036
 20
0.02224862603046579
 10
0.15597516893761684
 20
0.022225601418216473
 10
0.15611740070208596
 20
0.022203202405427017
 10
0.15625972964486803
 20
0.02218142942573957
 10
0.1564021530104921
 20
0.02216028290067637
 10
0.15654466804165917
 20
0.02213976323963157
 10
0.15668727197929555
 20
0.02211987083986331
 10
0.15682996206260635
 20
0.02210060608648602
 10
0.156972735529129
 20
0.02208196935246299
 10
0.15711558961478655
 20
0.022063960998599114
 10
0.1572585215539413
 20
0.02204658137353392
 10
0.15740152857944825
 20
0.02202983081373485
 10
0.1575446079227089
 20
0.022013709643490698
 10
0.15768775681372454
 20
0.021998218174905354
 10
0.15783097248115008
 20
0.02198335670789176
 10
0.15797425215234764
 20
0.02196912553016611
 10
0.15811759305344023
 20
0.02195552491724228
 10
0.15826099240936545
 20
0.021942555132426468
 10
0.15840444744392923
 20
0.02193021642681213
 10
0.15854795537985963
 20
0.021918509039275114
 10
0.1586915134388604
 20
0.021907433196469005
 10
0.15883511884166504
 20
0.02189698911282078
 10
0.15897876880809048
 20
0.02188717699052662
 10
0.15912246055709078
 20
0.02187799701954802
 10
0.15926619130681124
 20
0.021869449377608104
 10
0.15940995827464202
 20
0.021861534230188176
 10
0.15955375867727217
 20
0.02185425173052452
 10
0.15969758973074336
 20
0.02184760201960545
 10
0.1598414486505039
 20
0.021841585226168567
 10
0.1599853326514627
 20
0.021836201466698242
 10
0.16012923894804293
 20
0.021831450845423414
 10
0.16027316475423625
 20
0.021827333454315527
 10
0.1604171072836566
 20
0.021823849373086776
 10
0.16056106374959414
 20
0.021820998669188553
 10
0.1607050313650692
 20
0.021818781397810127
 10
0.16084900734288626
 20
0.021817197601877607
 10
0.16099298889568794
 20
0.02181624731205309
 10
0.16113697323600895
 20
0.021815930546734072
 10
0.16113697323600895
 20
0.021815930546734072
 10
0.1611736412480107
 20
0.02181601121630198
 10
0.1612103085501242
 20
0.02181625322344396
 10
0.16124697443247493
 20
0.021816656563474774
 10
0.16128363818521593
 20
0.021817221228585815
 10
0.16132029909854134
 20
0.021817947207845228
 10
0.1613569564627004
 20
0.021818834487198152
 10
0.16139360956801097
 20
0.021819883049466957
 10
0.1614302577048734
 20
0.021821092874351612
 10
0.16146690016378423
 20
0.021822463938430056
 10
0.16150353623534994
 20
0.021823996215158653
 10
0.1615401652103006
 20
0.02182568967487271
 10
0.16157678637950373
 20
0.021827544284787052
 10
0.16161339903397798
 20
0.02182956000899666
 10
0.16165000246490677
 20
0.02183173680847736
 10
0.1616865959636522
 20
0.021834074641086575
 10
0.16172317882176854
 20
0.021836573461564153
 10
0.1617597503310161
 20
0.021839233221533236
 10
0.16179630978337498
 20
0.02184205386950119
 10
0.16183285647105858
 20
0.021845035350860617
 10
0.1618693896865275
 20
0.0218481776078904
 10
0.16190590872250313
 20
0.02185148057975683
 10
0.16194241287198136
 20
0.021854944202514763
 10
0.16197890142824634
 20
0.021858568409108898
 10
0.16201537368488406
 20
0.021862353129375026
 10
0.16205182893579603
 20
0.021866298290041428
 10
0.16208826647521307
 20
0.021870403814730273
 10
0.16212468559770885
 20
0.0218746696239591
 10
0.1621610855982136
 20
0.02187909563514237
 10
0.1621974657720277
 20
0.021883681762593036
 10
0.16223382541483547
 20
0.021888427917524236
 10
0.16227016382271864
 20
0.021893334008050984
 10
0.16230648029217004
 20
0.02189839993919197
 10
0.16234277412010725
 20
0.021903625612871378
 10
0.16237904460388616
 20
0.021909010927920806
 10
0.16241529104131466
 20
0.02191455578008121
 10
0.16245151273066613
 20
0.021920260062004926
 10
0.16248770897069306
 20
0.021926123663257746
 10
0.16252387906064067
 20
0.021932146470321077
 10
0.1625600223002604
 20
0.021938328366594095
 10
0.16259613798982353
 20
0.021944669232396047
 10
0.16263222543013472
 20
0.021951168944968544
 10
0.16266828392254554
 20
0.021957827378477936
 10
0.16270431276896793
 20
0.02196464440401777
 10
0.16274031127188784
 20
0.021971619889611254
 10
0.16277627873437864
 20
0.021978753700213842
 10
0.1628122144601146
 20
0.021986045697715825
 10
0.16284811775338445
 20
0.02199349574094502
 10
0.16288398791910486
 20
0.022001103685669494
 10
0.16291982426283375
 20
0.022008869384600376
 10
0.16295562609078384
 20
0.02201679268739467
 10
0.16299139270983615
 20
0.022024873440658198
 10
0.1630271234275533
 20
0.02203311148794857
 10
0.16306281755219287
 20
0.022041506669778183
 10
0.16309847439272104
 20
0.022050058823617345
 10
0.16313409325882566
 20
0.0220587677838974
 10
0.16316967346092986
 20
0.022067633382013934
 10
0.16320521431020524
 20
0.02207665544633005
 10
0.1632407151185853
 20
0.022085833802179676
 10
0.16327617519877868
 20
0.02209516827187097
 10
0.1633115938642826
 20
0.022104658674689727
 10
0.16334697042939594
 20
0.02211430482690291
 10
0.16338230420923278
 20
0.02212410654176218
 10
0.16341759451973537
 20
0.02213406362950754
 10
0.16345284067768764
 20
0.02214417589737097
 10
0.1634880420007283
 20
0.022154443149580212
 10
0.16352319780736396
 20
0.022164865187362506
 10
0.1635583074169825
 20
0.022175441808948468
 10
0.16359337014986616
 20
0.022186172809575994
 10
0.16362838532720472
 20
0.02219705798149422
 10
0.16366335227110856
 20
0.02220809711396754
 10
0.16369827030462197
 20
0.022219289993279698
 10
0.16373313875173603
 20
0.022230636402737907
 10
0.16376795693740187
 20
0.02224213612267707
 10
0.16380272418754363
 20
0.022253788930464
 10
0.1638374398290716
 20
0.022265594600501766
 10
0.1638721031898952
 20
0.022277552904234027
 10
0.16390671359893594
 20
0.022289663610149484
 10
0.16394127038614056
 20
0.022301926483786344
 10
0.16397577288249388
 20
0.022314341287736864
 10
0.16401022042003172
 20
0.022326907781651955
 10
0.16404461233185397
 20
0.02233962572224582
 10
0.16407894795213743
 20
0.02235249486330069
 10
0.16411322661614866
 20
0.022365514955671545
 10
0.16414744766025685
 20
0.022378685747290992
 10
0.16418161042194684
 20
0.022392006983174107
 10
0.16421571423983167
 20
0.022405478405423385
 10
0.16424975845366557
 20
0.022419099753233734
 10
0.16428374240435673
 20
0.022432870762897517
 10
0.16431766543398
 20
0.022446791167809663
 10
0.16435152688578963
 20
0.02246086069847283
 10
0.1643853261042321
 20
0.02247507908250262
 10
0.1644190624349586
 20
0.022489446044632846
 10
0.16445273522483791
 20
0.02250396130672087
 10
0.1644863438219689
 20
0.02251862458775299
 10
0.1645198875756932
 20
0.022533435603849863
 10
0.16455336583660785
 20
0.022548394068272033
 10
0.1645867779565778
 20
0.02256349969142544
 10
0.16462012328874848
 20
0.02257875218086706
 10
0.1646534011875583
 20
0.022594151241310565
 10
0.1646866110087512
 20
0.022609696574632007
 10
0.1647197521093891
 20
0.022625387879875634
 10
0.1647528238478643
 20
0.022641224853259687
 10
0.16478582558391197
 20
0.022657207188182284
 10
0.16481875667862256
 20
0.022673334575227376
 10
0.16485161649445407
 20
0.022689606702170705
 10
0.16488440439524443
 20
0.02270602325398588
 10
0.16491711974622392
 20
0.022722583912850453
 10
0.16494976191402727
 20
0.02273928835815209
 10
0.16498233026670617
 20
0.022756136266494763
 10
0.16501482417374122
 20
0.02277312731170502
 10
0.16504724300605433
 20
0.022790261164838288
 10
0.16507958613602092
 20
0.022807537494185265
 10
0.16511185293748185
 20
0.022824955965278313
 10
0.16514404278575584
 20
0.022842516240897955
 10
0.1651761550576513
 20
0.02286021798107939
 10
0.16520818913147858
 20
0.02287806084311909
 10
0.16524014438706192
 20
0.022896044481581414
 10
0.1652720202057514
 20
0.022914168548305316
 10
0.16530381597043517
 20
0.022932432692411065
 10
0.16530381597043517
 20
0.022932432692411065
 10
0.16620163813204403
 20
0.023448134127719542
 10
0.1671065092066389
 20
0.02396259239207638
 10
0.1680184291942198
 20
0.024475807485481584
 10
0.16893739809478672
 20
0.02498777940793515
 10
0.16986341590833967
 20
0.025498508159437078
 10
0.17079648263487865
 20
0.026007993739987363
 10
0.17173659827440366
 20
0.026516236149586016
 10
0.17268376282691467
 20
0.02702323538823304
 10
0.17363797629241173
 20
0.027528991455928416
 10
0.1745992386708948
 20
0.028033504352672153
 10
0.1755675499623639
 20
0.028536774078464257
 10
0.17654291016681903
 20
0.029038800633304725
 10
0.17752531928426016
 20
0.02953958401719355
 10
0.17851477731468735
 20
0.030039124230130745
 10
0.17951128425810053
 20
0.030537421272116297
 10
0.18051484011449975
 20
0.03103447514315022
 10
0.181525444883885
 20
0.0315302858432325
 10
0.18254309856625628
 20
0.03202485337236314
 10
0.1835678011616136
 20
0.03251817773054215
 10
0.1845995526699569
 20
0.033010258917769514
 10
0.18563835309128623
 20
0.033501096934045245
 10
0.1866842024256016
 20
0.033990691779369336
 10
0.187737100672903
 20
0.0344790434537418
 10
0.18879704783319043
 20
0.03496615195716262
 10
0.1898640439064639
 20
0.03545201728963181
 10
0.19093808889272335
 20
0.035936639451149346
 10
0.19201918279196883
 20
0.03642001844171526
 10
0.19310732560420035
 20
0.03690215426132952
 10
0.1942025173294179
 20
0.03738304690999216
 10
0.19530475796762148
 20
0.03786269638770315
 10
0.19641404751881106
 20
0.03834110269446251
 10
0.19753038598298667
 20
0.03881826583027024
 10
0.19865377336014833
 20
0.039294185795126314
 10
0.19978420965029597
 20
0.039768862589030764
 10
0.20092169485342967
 20
0.04024229621198357
 10
0.20206622896954937
 20
0.04071448666398475
 10
0.20321781199865513
 20
0.04118543394503429
 10
0.2043764439407469
 20
0.041655138055132185
 10
0.20554212479582468
 20
0.04212359899427845
 10
0.2067148545638885
 20
0.042590816762473074
 10
0.20789463324493834
 20
0.043056791359716046
 10
0.2090814608389742
 20
0.0435215227860074
 10
0.21027533734599607
 20
0.04398501104134711
 10
0.21147626276600398
 20
0.04444725612573518
 10
0.21268423709899792
 20
0.04490825803917162
 10
0.21389926034497786
 20
0.045368016781656424
 10
0.21512133250394389
 20
0.04582653235318959
 10
0.21635045357589588
 20
0.04628380475377111
 10
0.2175866235608339
 20
0.046739833983400994
 10
0.21882984245875797
 20
0.04719462004207925
 10
0.22008011026966806
 20
0.04764816292980586
 10
0.22133742699356418
 20
0.04810046264658084
 10
0.2226017926304463
 20
0.04855151919240418
 10
0.22387320718031445
 20
0.04900133256727589
 10
0.22515167064316866
 20
0.049449902771195944
 10
0.22643718301900884
 20
0.04989722980416437
 10
0.22772974430783507
 20
0.050343313666181166
 10
0.22902935450964734
 20
0.05078815435724631
 10
0.2303360136244456
 20
0.05123175187735983
 10
0.2316497216522299
 20
0.05167410622652171
 10
0.23297047859300024
 20
0.05211521740473195
 10
0.2342982844467566
 20
0.052555085411990554
 10
0.235633139213499
 20
0.05299371024829752
 10
0.23697504289322738
 20
0.053431091913652855
 10
0.2383239954859418
 20
0.05386723040805654
 10
0.23967999699164227
 20
0.054302125731508596
 10
0.24104304741032873
 20
0.05473577788400902
 10
0.24241314674200123
 20
0.05516818686555779
 10
0.24379029498665977
 20
0.055599352676154935
 10
0.2451744921443043
 20
0.056029275315800445
 10
0.24656573821493488
 20
0.05645795478449431
 10
0.2479640331985515
 20
0.056885391082236544
 10
0.2493693770951541
 20
0.05731158420902714
 10
0.25078176990474277
 20
0.05773653416486609
 10
0.25220121162731746
 20
0.05816024094975341
 10
0.2536277022628781
 20
0.058582704563689095
 10
0.25506124181142487
 20
0.05900392500667315
 10
0.25650183027295764
 20
0.05942390227870555
 10
0.2579494676474764
 20
0.05984263637978632
 10
0.2594041539349812
 20
0.06026012730991545
 10
0.26086588913547204
 20
0.060676375069092944
 10
0.2623346732489489
 20
0.061091379657318805
 10
0.2638105062754117
 20
0.061505141074593025
 10
0.2652933882148606
 20
0.06191765932091561
 10
0.2667833190672956
 20
0.06232893439628656
 10
0.2682802988327165
 20
0.06273896630070586
 10
0.26978432751112347
 20
0.06314775503417355
 10
0.27129540510251643
 20
0.06355530059668957
 10
0.2728135316068955
 20
0.06396160298825397
 10
0.27433870702426055
 20
0.06436666220886673
 10
0.2758709313546116
 20
0.06477047825852786
 10
0.27741020459794863
 20
0.06517305113723734
 10
0.2789565267542718
 20
0.0655743808449952
 10
0.28050989782358093
 20
0.0659744673818014
 10
0.2820703178058761
 20
0.06637331074765597
 10
0.2836377867011573
 20
0.06677091094255891
 10
0.28521230450942453
 20
0.06716726796651021
 10
0.28679387123067773
 20
0.06756238181950988
 10
0.288382486864917
 20
0.06795625250155789
 10
0.28997815141214234
 20
0.0683488800126543
 10
0.29158086487235363
 20
0.06874026435279904
 10
0.29319062724555095
 20
0.06913040552199215
 10
0.2948074385317343
 20
0.06951930352023362
 10
0.2964312987309037
 20
0.06990695834752346
 10
0.29806220784305915
 20
0.07029337000386167
 10
0.2997001658682006
 20
0.07067853848924822
 10
0.301345172806328
 20
0.07106246380368315
 10
0.3029972286574415
 20
0.07144514594716644
 10
0.304656333421541
 20
0.07182658491969811
 10
0.30632248709862653
 20
0.0722067807212781
 10
0.3079956896886981
 20
0.0725857333519065
 10
0.30967594119175573
 20
0.07296344281158323
 10
0.31136324160779927
 20
0.07333990910030834
 10
0.31305759093682894
 20
0.0737151322180818
 10
0.3147589891788446
 20
0.07408911216490364
 10
0.3164674363338463
 20
0.07446184894077383
 10
0.318182932401834
 20
0.07483334254569236
 10
0.3199054773828077
 20
0.0752035929796593
 10
0.3216350712767675
 20
0.07557260024267458
  0
ENDSEC
  0
SECTION
  2
OBJECTS
  0
DICTIONARY
  5
A
330
0
100
AcDbDictionary
281
1
  3
ACAD_COLOR
350
B
  3
ACAD_GROUP
350
C
  3
ACAD_LAYOUT
350
D
  3
ACAD_MATERIAL
350
E
  3
ACAD_MLEADERSTYLE
350
F
  3
ACAD_MLINESTYLE
350
10
  3
ACAD_PLOTSETTINGS
350
11
  3
ACAD_PLOTSTYLENAME
350
12
  3
ACAD_SCALELIST
350
14
  3
ACAD_TABLESTYLE
350
15
  3
ACAD_VISUALSTYLE
350
16
  3
EZDXF_META
350
2D
  0
DICTIONARY
  5
B
330
A
100
AcDbDictionary
281
1
  0
DICTIONARY
  5
C
330
A
100
AcDbDictionary
281
1
  0
DICTIONARY
  5
D
330
A
100
AcDbDictionary
281
1
  3
Model
350
1A
  3
Layout1
350
1E
  0
DICTIONARY
  5
E
330
A
100
AcDbDictionary
281
1
  3
ByBlock
350
1F
  3
ByLayer
350
20
  3
Global
350
21
  0
DICTIONARY
  5
F
330
A
100
AcDbDictionary
281
1
  3
Standard
350
2C
  0
DICTIONARY
  5
10
330
A
100
AcDbDictionary
281
1
  3
Standard
350
22
  0
DICTIONARY
  5
11
330
A
100
AcDbDictionary
281
1
  0
ACDBDICTIONARYWDFLT
  5
12
330
A
100
AcDbDictionary
281
1
  3
Normal
350
13
100
AcDbDictionaryWithDefault
340
13
  0
ACDBPLACEHOLDER
  5
13
330
12
  0
DICTIONARY
  5
14
330
A
100
AcDbDictionary
281
1
  0
DICTIONARY
  5
15
330
A
100
AcDbDictionary
281
1
  0
DICTIONARY
  5
16
330
A
100
AcDbDictionary
281
1
  0
LAYOUT
  5
1A
330
D
100
AcDbPlotSettings
  1

  4
A3
  6

 40
7.5
 41
20.0
 42
7.5
 43
20.0
 44
420.0
 45
297.0
 46
0.0
 47
0.0
 48
0.0
 49
0.0
140
0.0
141
0.0
142
1.0
143
1.0
 70
1024
 72
1
 73
0
 74
5
  7

 75
16
 76
0
 77
2
 78
300
147
1.0
148
0.0
149
0.0
100
AcDbLayout
  1
Model
 70
1
 71
0
 10
0.0
 20
0.0
 11
420.0
 21
297.0
 12
0.0
 22
0.0
 32
0.0
 14
1e+20
 24
1e+20
 34
1e+20
 15
-1e+20
 25
-1e+20
 35
-1e+20
146
0.0
 13
0.0
 23
0.0
 33
0.0
 16
1.0
 26
0.0
 36
0.0
 17
0.0
 27
1.0
 37
0.0
 76
1
330
17
  0
LAYOUT
  5
1E
330
D
100
AcDbPlotSettings
  1

  4
A3
  6

 40
7.5
 41
20.0
 42
7.5
 43
20.0
 44
420.0
 45
297.0
 46
0.0
 47
0.0
 48
0.0
 49
0.0
140
0.0
141
0.0
142
1.0
143
1.0
 70
0
 72
1
 73
0
 74
5
  7

 75
16
 76
0
 77
2
 78
300
147
1.0
148
0.0
149
0.0
100
AcDbLayout
  1
Layout1
 70
1
 71
1
 10
0.0
 20
0.0
 11
420.0
 21
297.0
 12
0.0
 22
0.0
 32
0.0
 14
1e+20
 24
1e+20
 34
1e+20
 15
-1e+20
 25
-1e+20
 35
-1e+20
146
0.0
 13
0.0
 23
0.0
 33
0.0
 16
1.0
 26
0.0
 36
0.0
 17
0.0
 27
1.0
 37
0.0
 76
1
330
1B
  0
MATERIAL
  5
1F
102
{ACAD_REACTORS
330
E
102
}
330
E
100
AcDbMaterial
  1
ByBlock
  2

 70
0
 40
1.0
 71
1
 41
1.0
 91
-1023410177
 42
1.0
 72
1
  3

 73
1
 74
1
 75
1
 44
0.5
 73
0
 45
1.0
 46
1.0
 77
1
  4

 78
1
 79
1
170
1
 48
1.0
171
1
  6

172
1
173
1
174
1
140
1.0
141
1.0
175
1
  7

176
1
177
1
178
1
143
1.0
179
1
  8

270
1
271
1
272
1
145
1.0
146
1.0
273
1
  9

274
1
275
1
276
1
 42
1.0
 72
1
  3

 73
1
 74
1
 75
1
 94
63
  0
MATERIAL
  5
20
102
{ACAD_REACTORS
330
E
102
}
330
E
100
AcDbMaterial
  1
ByLayer
  2

 70
0
 40
1.0
 71
1
 41
1.0
 91
-1023410177
 42
1.0
 72
1
  3

 73
1
 74
1
 75
1
 44
0.5
 73
0
 45
1.0
 46
1.0
 77
1
  4

 78
1
 79
1
170
1
 48
1.0
171
1
  6

172
1
173
1
174
1
140
1.0
141
1.0
175
1
  7

176
1
177
1
178
1
143
1.0
179
1
  8

270
1
271
1
272
1
145
1.0
146
1.0
273
1
  9

274
1
275
1
276
1
 42
1.0
 72
1
  3

 73
1
 74
1
 75
1
 94
63
  0
MATERIAL
  5
21
102
{ACAD_REACTORS
330
E
102
}
330
E
100
AcDbMaterial
  1
Global
  2

 70
0
 40
1.0
 71
1
 41
1.0
 91
-1023410177
 42
1.0
 72
1
  3

 73
1
 74
1
 75
1
 44
0.5
 73
0
 45
1.0
 46
1.0
 77
1
  4

 78
1
 79
1
170
1
 48
1.0
171
1
  6

172
1
173
1
174
1
140
1.0
141
1.0
175
1
  7

176
1
177
1
178
1
143
1.0
179
1
  8

270
1
271
1
272
1
145
1.0
146
1.0
273
1
  9

274
1
275
1
276
1
 42
1.0
 72
1
  3

 73
1
 74
1
 75
1
 94
63
  0
MLINESTYLE
  5
22
102
{ACAD_REACTORS
330
10
102
}
330
10
100
AcDbMlineStyle
  2
Standard
 70
0
  3

 62
256
 51
90.0
 52
90.0
 71
2
 49
0.5
 62
256
  6
BYLAYER
 49
-0.5
 62
256
  6
BYLAYER
  0
MLEADERSTYLE
  5
2C
102
{ACAD_REACTORS
330
F
102
}
330
F
100
AcDbMLeaderStyle
179
2
170
2
171
1
172
0
 90
2
 40
0.0
 41
0.0
173
1
 91
-1056964608
 92
-2
290
1
 42
2.0
291
1
 43
8.0
  3
Standard
 44
4.0
300

342
29
174
1
175
1
176
0
178
1
 93
-1056964608
 45
4.0
292
0
297
0
 46
4.0
 94
-1056964608
 47
1.0
 49
1.0
140
1.0
294
1
141
0.0
177
0
142
1.0
295
0
296
0
143
3.75
271
0
272
9
273
9
  0
DICTIONARY
  5
2D
330
A
100
AcDbDictionary
280
1
281
1
  3
CREATED_BY_EZDXF
350
2E
  3
WRITTEN_BY_EZDXF
350
32
  0
DICTIONARYVAR
  5
2E
330
2D
100
DictionaryVariables
280
0
  1
1.4.2 @ 2025-11-21T09:06:10.908871+00:00
  0
DICTIONARYVAR
  5
32
330
2D
100
DictionaryVariables
280
0
  1
1.4.2 @ 2025-11-21T09:06:10.924933+00:00
  0
ENDSEC
  0
EOF
