0
SECTION
2
HEADER
9
$INSUNITS
70
4
9
$MEASUREMENT
70
1
0
ENDSEC
0
SECTION
2
ENTITIES
0
LINE
8
CH_FLOOR
10
-189.71091
20
49.38320
30
0.0
11
-67.92428
21
49.38320
31
0.0
0
ARC
8
CH_FLOOR
10
-67.92428
20
23.72414
30
0.0
40
25.65907
50
60.00000
51
90.00000
0
LINE
8
CH_FLOOR
10
-55.09475
20
45.94554
30
0.0
11
-12.82953
21
21.54371
31
0.0
0
ARC
8
CH_FLOOR
10
0.00000
20
43.76511
30
0.0
40
25.65907
50
240.00000
51
270.00000
0
ARC
8
CH_FLOOR
10
0.00000
20
24.64056
30
0.0
40
6.53451
50
270.00000
51
300.00000
0
LINE
8
BELL_POLY
10
3.26725
20
18.98150
30
0.0
11
27.60619
21
33.03360
31
0.0
0
LINE
8
BELL_POLY
10
27.60619
20
33.03360
30
0.0
11
74.02907
21
42.90108
31
0.0
0
POINT
8
CONTROL
10
3.26725
20
18.98150
30
0.0
0
POINT
8
CONTROL
10
27.60619
20
33.03360
30
0.0
0
POINT
8
CONTROL
10
74.02907
20
42.90108
30
0.0
0
POINT
8
POINTS
10
-189.71091
20
49.38320
30
0.0
0
POINT
8
POINTS
10
-67.92428
20
49.38320
30
0.0
0
POINT
8
POINTS
10
-55.09475
20
45.94554
30
0.0
0
POINT
8
POINTS
10
-12.82953
20
21.54371
30
0.0
0
POINT
8
POINTS
10
0.00000
20
18.10605
30
0.0
0
POINT
8
POINTS
10
3.26725
20
18.98150
30
0.0
0
POINT
8
POINTS
10
74.02907
20
42.90108
30
0.0
0
LINE
8
CH_CENTER
10
-189.71091
20
49.99130
30
0.0
11
-67.92428
21
49.99130
31
0.0
0
ARC
8
CH_CENTER
10
-67.92428
20
24.33223
30
0.0
40
25.65907
50
60.00000
51
90.00000
0
LINE
8
CH_CENTER
10
-55.09475
20
46.55363
30
0.0
11
-12.82953
21
22.15180
31
0.0
0
ARC
8
CH_CENTER
10
0.00000
20
44.37321
30
0.0
40
25.65907
50
240.00000
51
270.00000
0
ARC
8
CH_CENTER
10
0.00000
20
25.24865
30
0.0
40
6.53451
50
270.00000
51
300.00000
0
LINE
8
BELL_POLY
10
3.26725
20
19.58960
30
0.0
11
27.60619
21
33.64169
31
0.0
0
LINE
8
BELL_POLY
10
27.60619
20
33.64169
30
0.0
11
74.02907
21
43.50918
31
0.0
0
POINT
8
CONTROL
10
3.26725
20
19.58960
30
0.0
0
POINT
8
CONTROL
10
27.60619
20
33.64169
30
0.0
0
POINT
8
CONTROL
10
74.02907
20
43.50918
30
0.0
0
POINT
8
POINTS
10
-189.71091
20
49.99130
30
0.0
0
POINT
8
POINTS
10
-67.92428
20
49.99130
30
0.0
0
POINT
8
POINTS
10
-55.09475
20
46.55363
30
0.0
0
POINT
8
POINTS
10
-12.82953
20
22.15180
30
0.0
0
POINT
8
POINTS
10
0.00000
20
18.71414
30
0.0
0
POINT
8
POINTS
10
3.26725
20
19.58960
30
0.0
0
POINT
8
POINTS
10
74.02907
20
43.50918
30
0.0
0
LINE
8
CH_CEILING
10
-189.71091
20
50.59939
30
0.0
11
-67.92428
21
50.59939
31
0.0
0
ARC
8
CH_CEILING
10
-67.92428
20
24.94032
30
0.0
40
25.65907
50
60.00000
51
90.00000
0
LINE
8
CH_CEILING
10
-55.09475
20
47.16173
30
0.0
11
-12.82953
21
22.75990
31
0.0
0
ARC
8
CH_CEILING
10
0.00000
20
44.98130
30
0.0
40
25.65907
50
240.00000
51
270.00000
0
ARC
8
CH_CEILING
10
0.00000
20
25.85674
30
0.0
40
6.53451
50
270.00000
51
300.00000
0
LINE
8
BELL_POLY
10
3.26725
20
20.19769
30
0.0
11
27.60619
21
34.24978
31
0.0
0
LINE
8
BELL_POLY
10
27.60619
20
34.24978
30
0.0
11
74.02907
21
44.11727
31
0.0
0
POINT
8
CONTROL
10
3.26725
20
20.19769
30
0.0
0
POINT
8
CONTROL
10
27.60619
20
34.24978
30
0.0
0
POINT
8
CONTROL
10
74.02907
20
44.11727
30
0.0
0
POINT
8
POINTS
10
-189.71091
20
50.59939
30
0.0
0
POINT
8
POINTS
10
-67.92428
20
50.59939
30
0.0
0
POINT
8
POINTS
10
-55.09475
20
47.16173
30
0.0
0
POINT
8
POINTS
10
-12.82953
20
22.75990
30
0.0
0
POINT
8
POINTS
10
0.00000
20
19.32223
30
0.0
0
POINT
8
POINTS
10
3.26725
20
20.19769
30
0.0
0
POINT
8
POINTS
10
74.02907
20
44.11727
30
0.0
0
ENDSEC
0
EOF
