0
SECTION
2
HEADER
9
$INSUNITS
70
4
9
$MEASUREMENT
70
1
0
ENDSEC
0
SECTION
2
ENTITIES
0
LINE
8
CEIL_HOT
10
-189.71091
20
48.38320
30
0.0
11
-67.92428
21
48.38320
31
0.0
0
ARC
8
CEIL_HOT
10
-67.92428
20
22.72414
30
0.0
40
25.65907
50
60.00000
51
90.00000
0
LINE
8
CEIL_HOT
10
-55.09475
20
44.94554
30
0.0
11
-12.82953
21
20.54371
31
0.0
0
ARC
8
CEIL_HOT
10
0.00000
20
42.76511
30
0.0
40
25.65907
50
240.00000
51
270.00000
0
ARC
8
CEIL_HOT
10
0.00000
20
23.64056
30
0.0
40
6.53451
50
270.00000
51
300.00000
0
LINE
8
BELL_POLY
10
3.26725
20
17.98150
30
0.0
11
27.60619
21
32.03360
31
0.0
0
LINE
8
BELL_POLY
10
27.60619
20
32.03360
30
0.0
11
74.02907
21
41.90108
31
0.0
0
POINT
8
CONTROL
10
3.26725
20
17.98150
30
0.0
0
POINT
8
CONTROL
10
27.60619
20
32.03360
30
0.0
0
POINT
8
CONTROL
10
74.02907
20
41.90108
30
0.0
0
POINT
8
POINTS
10
-189.71091
20
48.38320
30
0.0
0
POINT
8
POINTS
10
-67.92428
20
48.38320
30
0.0
0
POINT
8
POINTS
10
-55.09475
20
44.94554
30
0.0
0
POINT
8
POINTS
10
-12.82953
20
20.54371
30
0.0
0
POINT
8
POINTS
10
0.00000
20
17.10605
30
0.0
0
POINT
8
POINTS
10
3.26725
20
17.98150
30
0.0
0
POINT
8
POINTS
10
74.02907
20
41.90108
30
0.0
0
LINE
8
CEIL_TOP
10
-189.71091
20
50.59939
30
0.0
11
-67.92428
21
50.59939
31
0.0
0
ARC
8
CEIL_TOP
10
-67.92428
20
24.94032
30
0.0
40
25.65907
50
60.00000
51
90.00000
0
LINE
8
CEIL_TOP
10
-55.09475
20
47.16173
30
0.0
11
-12.82953
21
22.75990
31
0.0
0
ARC
8
CEIL_TOP
10
0.00000
20
44.98130
30
0.0
40
25.65907
50
240.00000
51
270.00000
0
ARC
8
CEIL_TOP
10
0.00000
20
25.85674
30
0.0
40
6.53451
50
270.00000
51
300.00000
0
LINE
8
BELL_POLY
10
3.26725
20
20.19769
30
0.0
11
27.60619
21
34.24978
31
0.0
0
LINE
8
BELL_POLY
10
27.60619
20
34.24978
30
0.0
11
74.02907
21
44.11727
31
0.0
0
POINT
8
CONTROL
10
3.26725
20
20.19769
30
0.0
0
POINT
8
CONTROL
10
27.60619
20
34.24978
30
0.0
0
POINT
8
CONTROL
10
74.02907
20
44.11727
30
0.0
0
POINT
8
POINTS
10
-189.71091
20
50.59939
30
0.0
0
POINT
8
POINTS
10
-67.92428
20
50.59939
30
0.0
0
POINT
8
POINTS
10
-55.09475
20
47.16173
30
0.0
0
POINT
8
POINTS
10
-12.82953
20
22.75990
30
0.0
0
POINT
8
POINTS
10
0.00000
20
19.32223
30
0.0
0
POINT
8
POINTS
10
3.26725
20
20.19769
30
0.0
0
POINT
8
POINTS
10
74.02907
20
44.11727
30
0.0
0
LINE
8
CEIL_CAP
10
-189.71091
20
48.38320
30
0.0
11
-189.71091
21
50.59939
31
0.0
0
LINE
8
CEIL_CAP
10
74.02907
20
41.90108
30
0.0
11
74.02907
21
44.11727
31
0.0
0
ENDSEC
0
EOF
