0
SECTION
2
HEADER
0
ENDSEC
0
SECTION
2
ENTITIES
0
LINE
8
LAND_PATH
10
-220.34734
20
56.29177
30
0.0
11
-71.92170
21
56.29177
31
0.0
0
ARC
8
LAND_PATH
10
-71.92170
20
22.37138
30
0.0
40
33.92039
50
60.00000
51
90.00000
0
LINE
8
LAND_PATH
10
-54.96151
20
51.74730
30
0.0
11
-11.30680
21
26.54324
31
0.0
0
ARC
8
LAND_PATH
10
0.00000
20
46.12719
30
0.0
40
22.61360
50
240.00000
51
270.00000
0
ARC
8
LAND_PATH
10
0.00000
20
32.15199
30
0.0
40
8.63839
50
270.00000
51
300.00000
0
LINE
8
BELL_POLY
10
4.31920
20
24.67092
30
0.0
11
45.07739
21
48.20267
31
0.0
0
LINE
8
BELL_POLY
10
45.07739
20
48.20267
30
0.0
11
123.44822
21
64.86091
31
0.0
0
POINT
8
CONTROL
10
4.31920
20
24.67092
30
0.0
0
POINT
8
CONTROL
10
45.07739
20
48.20267
30
0.0
0
POINT
8
CONTROL
10
123.44822
20
64.86091
30
0.0
0
POINT
8
POINTS
10
-220.34734
20
56.29177
30
0.0
0
POINT
8
POINTS
10
-71.92170
20
56.29177
30
0.0
0
POINT
8
POINTS
10
-54.96151
20
51.74730
30
0.0
0
POINT
8
POINTS
10
-11.30680
20
26.54324
30
0.0
0
POINT
8
POINTS
10
0.00000
20
23.51360
30
0.0
0
POINT
8
POINTS
10
4.31920
20
24.67092
30
0.0
0
POINT
8
POINTS
10
123.44822
20
64.86091
30
0.0
0
LINE
8
LAND_ROOF
10
-220.34734
20
57.69179
30
0.0
11
-71.92170
21
57.69179
31
0.0
0
ARC
8
LAND_ROOF
10
-71.92170
20
23.77140
30
0.0
40
33.92039
50
60.00000
51
90.00000
0
LINE
8
LAND_ROOF
10
-54.96151
20
53.14732
30
0.0
11
-11.30680
21
27.94326
31
0.0
0
ARC
8
LAND_ROOF
10
0.00000
20
47.52721
30
0.0
40
22.61360
50
240.00000
51
270.00000
0
ARC
8
LAND_ROOF
10
0.00000
20
33.55201
30
0.0
40
8.63839
50
270.00000
51
300.00000
0
LINE
8
BELL_POLY
10
4.31920
20
26.07094
30
0.0
11
45.07739
21
49.60270
31
0.0
0
LINE
8
BELL_POLY
10
45.07739
20
49.60270
30
0.0
11
123.44822
21
66.26093
31
0.0
0
POINT
8
CONTROL
10
4.31920
20
26.07094
30
0.0
0
POINT
8
CONTROL
10
45.07739
20
49.60270
30
0.0
0
POINT
8
CONTROL
10
123.44822
20
66.26093
30
0.0
0
POINT
8
POINTS
10
-220.34734
20
57.69179
30
0.0
0
POINT
8
POINTS
10
-71.92170
20
57.69179
30
0.0
0
POINT
8
POINTS
10
-54.96151
20
53.14732
30
0.0
0
POINT
8
POINTS
10
-11.30680
20
27.94326
30
0.0
0
POINT
8
POINTS
10
0.00000
20
24.91362
30
0.0
0
POINT
8
POINTS
10
4.31920
20
26.07094
30
0.0
0
POINT
8
POINTS
10
123.44822
20
66.26093
30
0.0
0
LINE
8
LAND_PROFILE
10
138.44822
20
78.96091
30
0.0
11
140.90197
21
78.96091
31
0.0
0
LINE
8
LAND_PROFILE
10
140.90197
20
78.96091
30
0.0
11
140.90197
21
80.36093
31
0.0
0
LINE
8
LAND_PROFILE
10
140.90197
20
80.36093
30
0.0
11
138.44822
21
80.36093
31
0.0
0
LINE
8
LAND_PROFILE
10
138.44822
20
80.36093
30
0.0
11
138.44822
21
78.96091
31
0.0
0
POINT
8
LAND_PROFILE
10
138.44822
20
78.96091
30
0.0
0
POINT
8
LAND_PROFILE
10
140.90197
20
78.96091
30
0.0
0
POINT
8
LAND_PROFILE
10
140.90197
20
80.36093
30
0.0
0
POINT
8
LAND_PROFILE
10
138.44822
20
80.36093
30
0.0
0
ENDSEC
0
EOF
