0
SECTION
2
HEADER
9
$INSUNITS
70
4
9
$MEASUREMENT
70
1
0
ENDSEC
0
SECTION
2
ENTITIES
0
LWPOLYLINE
8
LAND_MAIN
90
26
70
1
10
0.93397
20
-189.71091
10
0.93394
20
-67.92428
10
0.90971
20
-61.50951
10
0.83195
20
-55.09475
10
0.60307
20
-41.71091
10
1.32968
20
-30.71091
10
0.71776
20
-12.82953
10
0.56253
20
-6.41477
10
0.51440
20
0.00000
10
0.52741
20
1.63363
10
0.56599
20
3.26725
10
1.44338
20
38.64816
10
1.97434
20
74.02907
10
0.00000
20
74.02907
10
0.00000
20
38.64816
10
0.00000
20
3.26725
10
0.00000
20
1.63363
10
0.00000
20
0.00000
10
0.00000
20
-6.41477
10
0.00000
20
-12.82953
10
0.00000
20
-30.71091
10
0.00000
20
-41.71091
10
0.00000
20
-55.09475
10
0.00000
20
-61.50951
10
0.00000
20
-67.92428
10
0.00000
20
-189.71091
0
LWPOLYLINE
8
LAND_EXTRA
90
12
70
1
10
1.93397
20
-189.71091
10
2.86793
20
-189.71091
10
2.86789
20
-67.92428
10
2.81943
20
-61.50951
10
2.66391
20
-55.09475
10
2.20613
20
-41.71091
10
1.60307
20
-41.71091
10
1.60307
20
-41.71091
10
1.83195
20
-55.09475
10
1.90971
20
-61.50951
10
1.93394
20
-67.92428
10
1.93397
20
-189.71091
0
POINT
8
LAND_SNAP
10
0.00000
20
-189.71091
30
0.0
0
POINT
8
LAND_SNAP
10
0.00000
20
74.02907
30
0.0
0
POINT
8
LAND_SNAP
10
0.00000
20
0.00000
30
0.0
0
ENDSEC
0
EOF
